<svg width="616" height="401" viewBox="0 0 616 401" fill="none" xmlns="http://www.w3.org/2000/svg">
<path d="M221.973 -53.992C180.173 -53.992 140.891 -54.7401 99.176 -54.608M221.973 -53.992C221.973 -48.1314 223.866 -25.8947 223.866 -19.7218C223.866 -6.73741 223.472 4.12914 223.866 16.7488C224.193 27.2359 227.703 59.7037 223.866 70.286M221.973 -53.992L240.548 -68.93M99.176 -54.608C99.176 -54.608 97.956 -29.3579 97.956 -25.7613C97.956 -8.50841 95.8145 54.0664 99.8055 71.3061C127.557 71.951 196.368 71.3061 223.866 70.286M99.176 -54.608L120.736 -72.01H197.428C209.994 -72.01 231.411 -69.9566 240.548 -68.93M223.866 70.286L244.09 55.194C244.09 37.638 243.782 0.400798 242.55 -8.1C241.318 -16.6008 240.702 -52.1954 240.548 -68.93M492.572 297.501C451.392 297.501 199.327 296.82 158.231 296.94M492.572 297.501C492.572 302.832 494.435 323.059 494.435 328.673C494.435 340.482 494.047 350.366 494.435 361.845C494.759 371.384 498.215 400.915 494.435 410.54M492.572 297.501L510.87 283.915M158.231 296.94C158.231 296.94 157.029 319.908 157.029 323.179C157.029 338.871 154.92 395.79 158.851 411.47C186.192 412.055 467.347 411.47 494.435 410.54M158.231 296.94L179.471 281.112H468.391C480.769 281.112 501.868 282.978 510.87 283.915M494.435 410.54L514.36 396.815C514.36 380.845 514.055 346.975 512.842 339.244C511.628 331.51 511.021 299.136 510.87 283.915M285.983 126.958C244.183 126.958 204.901 126.21 163.186 126.342M285.983 126.958L304.558 112.02M285.983 126.958C285.983 150.378 287.143 174.254 287.876 197.699C288.204 208.187 291.713 240.653 287.876 251.236M163.186 126.342C163.186 126.342 160.622 161.554 160.622 165.15C160.622 182.404 163.186 231.986 163.815 252.255C191.567 252.902 260.378 252.255 287.876 251.236M163.186 126.342L184.746 108.94C205.074 108.94 235.066 109.71 247.632 109.71C260.198 109.71 295.42 110.993 304.558 112.02M304.558 112.02C304.712 128.755 308.099 201.34 308.099 210.426V236.144L287.876 251.236M487.672 -53.992C445.873 -53.992 310.867 -54.2781 269.151 -54.146M487.672 -53.992C487.672 -48.1314 489.566 -25.8947 489.566 -19.7218C489.566 -6.73741 489.172 4.12914 489.566 16.7488C490.465 45.5511 489.859 73.6817 492.338 102.318V162.224C493.108 172.542 493.077 194.626 492.338 199.8C491.599 204.974 491.568 244.204 490.952 263.248M487.672 -53.992L506.247 -68.93M269.151 -54.146V-25.7613C269.151 -8.50841 269.151 53.038 271.001 71.3061C281.643 71.5534 312.216 71.611 347.424 71.5306C346.756 99.4003 345.822 161.392 347.424 186.402C349.026 211.412 348.092 248.054 347.424 263.248H385.924C394.24 263.248 427.042 262.478 430.738 261.708C433.695 261.092 461.23 261.452 474.628 261.708L490.952 263.248M269.151 -54.146L291.931 -72.01H463.127C475.694 -72.01 497.112 -69.9566 506.247 -68.93M490.952 263.248L508.2 249.388C509.537 226.134 509.481 0.400798 508.249 -8.1C507.017 -16.6008 506.401 -52.1954 506.247 -68.93M451.836 34.404C452.547 44.1183 453.542 65.4224 451.882 73.6028C451.854 73.7402 451.737 73.8323 451.599 73.8388L410.872 75.676M410.872 75.676C412.976 72.0826 418.449 64.0028 423.5 60.43M410.872 75.676C412.976 78.756 418.603 85.4088 424.27 87.38M202.799 338.058C200.553 346.799 204.707 355.42 213.366 357.644C222.026 359.871 230.868 354.588 233.114 345.85C234.73 339.561 232.318 333.879 227.612 330.355M202.799 338.058C205.046 329.317 212.503 325.085 221.163 327.312C223.593 327.937 225.777 328.981 227.612 330.355M202.799 338.058C197.262 341.15 187.449 348.225 192.5 351.798C197.551 355.371 216.575 349.322 225.456 345.85C231.308 343.057 242.858 336.275 242.242 331.47C241.626 326.665 232.232 328.726 227.612 330.355M186.77 35.6446L187.843 51.4897M136.713 -36.128L137.545 -23.8413M195.531 42.388L178.877 43.3646M143.506 -30.8988L130.592 -30.1417M223.106 177.048C214.69 187.988 190.824 218.911 182.898 230.215C185.946 233.212 194.6 239.218 198.43 241.134C204.057 234.783 212.551 222.426 217.628 215.742C223.736 207.703 229.085 200.85 235.419 192.614C236.206 191.592 237.515 189.858 239.07 187.788M223.106 177.048C224.861 174.766 236.948 159.952 236.948 159.952C242.068 163.757 246.841 166.809 251.907 170.706C249.796 173.451 243.455 181.951 239.07 187.788M223.106 177.048L239.07 187.788M260.322 144.976L254.408 152.075M233.156 138.816L235.547 147.741M273.691 164.38L264.572 165.872M210.98 154.524L217.514 161.058M261.184 185.324L267.718 191.857M163.24 -36.128C163.24 -36.128 169.296 -20.3381 175.323 -13.3369C181.021 -6.71677 192.5 0.975837 192.5 0.975837C192.5 0.975837 182.337 7.45585 176.638 14.076C170.611 21.0775 163.24 35.636 163.24 35.636C163.24 35.636 157.184 22.29 151.157 15.2889C145.459 8.66875 133.98 0.975837 133.98 0.975837C133.98 0.975837 146.761 -8.25585 152.46 -14.876C158.487 -21.8775 163.24 -36.128 163.24 -36.128ZM201.74 -29.2032C201.74 -26.5637 199.983 -24.424 197.321 -24.424C194.658 -24.424 192.5 -26.5637 192.5 -29.2032C192.5 -31.8428 194.658 -33.664 197.321 -33.664C199.983 -33.664 201.74 -31.8428 201.74 -29.2032ZM265.084 345.989C268.373 346.833 270.477 349.71 269.623 353.03C268.77 356.35 265.412 358.355 262.122 357.511C258.833 356.664 257.256 353.39 258.109 350.07C258.962 346.75 261.795 345.142 265.084 345.989Z" stroke="white" stroke-width="4.62" stroke-linecap="round" stroke-linejoin="round"/>
<path d="M236.948 159.952C242.068 163.757 246.841 166.809 251.907 170.706C249.796 173.451 243.455 181.951 239.07 187.788L223.106 177.048C224.861 174.766 236.948 159.952 236.948 159.952Z" fill="white"/>
<path d="M198.499 19.2849C199.228 21.638 197.917 24.135 195.035 25.0279C192.153 25.9208 189.225 24.7368 188.496 22.3834C187.767 20.0303 189.6 17.6827 192.483 16.7898C195.365 15.8969 197.77 16.9315 198.499 19.2849Z" fill="white"/>
<path d="M213.647 370.019C219.789 371.599 223.718 376.971 222.124 383.168C220.531 389.368 214.259 393.113 208.117 391.536C201.974 389.956 199.028 383.842 200.621 377.642C202.215 371.442 207.504 368.442 213.647 370.019Z" fill="white"/>
<path d="M164.335 -5.21556C166.721 -4.60233 168.16 -2.17683 167.408 0.745781C166.657 3.66809 164.114 5.54011 161.728 4.92688C159.342 4.31366 158.305 1.52132 159.056 -1.40129C159.807 -4.3239 161.949 -5.82879 164.335 -5.21556Z" fill="white"/>
<path d="M210.628 50.3128C212.109 51.5254 212.329 53.7048 210.844 55.5183C209.359 57.3321 206.955 57.8194 205.474 56.6068C203.994 55.3945 204.176 53.0876 205.661 51.2741C207.146 49.4606 209.147 49.1005 210.628 50.3128Z" fill="white"/>
<path d="M127.433 18.0418C127.899 16.9644 129.574 16.9694 130.005 18.0612C131.279 21.2958 133.309 25.9827 135.09 28.0266C136.375 29.5007 138.139 30.4826 139.634 31.1075C140.665 31.5381 140.937 33.1585 140.037 33.821C138.465 34.9787 136.492 36.5696 135.09 38.1779C133.281 40.2542 131.215 43.7512 129.945 46.0332C129.445 46.9316 128.095 46.9054 127.622 45.9922C126.525 43.8759 124.77 40.7531 123.02 38.7453C121.208 36.666 118.161 34.3603 116.355 33.0698C115.652 32.5671 115.635 31.507 116.325 30.9874C118.287 29.5111 121.767 26.7795 123.638 24.6339C125.156 22.8916 126.504 20.1895 127.433 18.0418Z" fill="white"/>
<path fill-rule="evenodd" clip-rule="evenodd" d="M443.723 328.014C431.181 325.852 424.686 328.31 422.715 329.631C421.997 330.115 421.581 330.916 421.584 331.763C421.59 332.57 421.969 333.272 422.521 333.731C424.661 335.52 427.55 338.677 429.38 342.413C431.203 346.134 431.865 350.159 430.119 354.025C428.496 357.628 425.237 359.128 421.218 359.384C417.146 359.643 412.717 358.562 409.745 357.407C407.971 356.717 405.858 358.143 406.212 360.265C407.04 365.261 409.458 372.289 414.266 377.602C419.191 383.048 426.574 386.599 436.802 384.403C447.031 382.207 453.447 376.373 457.248 369.979C461.005 363.656 462.206 356.8 462.151 352.322C462.151 352.294 462.151 352.266 462.151 352.241C461.991 348.826 460.974 343.488 458.258 338.656C455.513 333.765 450.94 329.259 443.723 328.014Z" fill="white"/>
</svg>
