<svg width="264" height="277" viewBox="0 0 264 277" fill="none" xmlns="http://www.w3.org/2000/svg">
<path d="M236.408 45.8215C157.28 45.8215 82.095 47.3849 3.12776 47.5777M236.408 45.8215C236.408 54.3817 238.303 87.0659 238.303 96.0823C238.303 115.048 239.244 130.716 239.99 149.149C240.611 164.467 239.99 192.429 239.99 207.26M236.408 45.8215L259.061 27.8087M3.12776 47.5777C3.12776 47.5777 1.45398 82.6474 1.45398 87.9002C1.45398 113.101 3.92033 181.17 5.59181 207.26C17.4736 207.472 33.3086 207.666 51.3029 207.819M3.12776 47.5777L25.213 33.2563M239.99 207.26L262.598 180.711V112.033C262.598 102.294 260.24 51.8257 259.061 27.8087M239.99 207.26C210.969 208.091 157.778 208.288 107.284 208.137M259.061 27.8087C246.177 27.6195 223.241 27.4629 199.93 27.1262M51.3029 207.819C52.8066 204.195 56.3682 201.827 58.2887 200.991M51.3029 207.819C50.9606 208.645 50.7249 209.535 50.6395 210.486C50.1738 215.674 52.5061 220.756 58.2887 219.486M25.213 33.2563C28.6733 35.3644 32.7694 36.477 35.5055 36.8562M25.213 33.2563C21.6697 31.0974 18.7931 27.8949 18.7265 23.3672C18.5949 14.4184 29.09 20.5159 34.354 24.6832C31.3382 18.1582 26.8034 4.54841 32.7912 2.31121C38.779 0.0740114 41.4823 16.2937 42.0855 24.6832C42.387 20.8175 43.9279 12.9873 47.6785 12.5925C50.3784 12.3082 50.0011 20.1333 48.9948 27.4035M107.284 208.137C107.118 207.808 106.951 207.5 106.787 207.219M107.284 208.137C109.552 212.62 111.669 221.129 104.825 225.557M199.93 27.1262C199.915 29.3065 199.38 32.1392 199.183 34.142M199.93 27.1262C199.945 25.0681 199.497 23.5914 197.867 23.943C196.495 24.2391 195.709 25.4805 195.293 27.0568M23.0035 193.296L20.6182 87.9002C22.5935 87.3543 28.5856 86.878 37.3972 86.4641M23.0035 193.296L39.289 177.75M23.0035 193.296C31.1518 192.975 41.3799 192.602 52.433 192.24M37.3972 86.4641L39.289 177.75M37.3972 86.4641C74.6703 84.7137 162.394 84.0786 209.958 83.9856L214.128 177.75M39.289 177.75H59.7284M52.433 192.24C53.495 188.07 59.3428 186.235 62.319 185.831M52.433 192.24C52.3602 192.526 52.3098 192.824 52.2845 193.131C51.9237 197.522 54.0247 201.823 58.2887 200.991M59.7284 177.75C60.0278 177.188 60.396 176.61 60.8385 176.023C64.8523 170.693 70.7907 172.047 73.2582 173.391M59.7284 177.75C57.4893 181.957 59.0999 185.327 62.319 185.831M214.128 177.75L214.728 191.239C204.457 191.621 187.471 192.088 172.235 192.143M214.128 177.75H192.555M172.235 192.143L186.681 182.768M172.235 192.143L163.486 197.819C163.486 197.819 161.554 195.408 158.954 192.062M192.555 177.75L186.681 182.768M192.555 177.75L194.577 176.023L171.218 148.469M17.2577 60.2154C19.0387 58.2707 21.8117 57.436 23.5792 57.2544C26.5677 56.4867 32.6432 56.9418 33.038 64.9036C33.1452 67.0655 32.7858 68.763 32.1451 70.0854M17.2577 60.2154C16.0828 61.4981 15.3394 63.2639 15.601 65.6439C16.259 71.6317 21.7972 73.9511 24.484 74.3624C26.6809 74.4821 30.4259 73.633 32.1451 70.0854M17.2577 60.2154C18.981 57.6929 25.3501 50.0735 31.8865 54.0466C40.276 59.1461 35.2117 65.2052 32.1451 70.0854M48.8417 60.2154C50.6227 58.2707 53.3957 57.436 55.1632 57.2544C58.1517 56.4867 64.2272 56.9418 64.622 64.9036C64.7292 67.0655 64.3698 68.763 63.7291 70.0854M48.8417 60.2154C47.6668 61.4981 46.9234 63.2639 47.185 65.6439C47.843 71.6317 53.3812 73.9511 56.068 74.3624C58.2649 74.4821 62.0099 73.633 63.7291 70.0854M48.8417 60.2154C50.565 57.6929 56.9341 50.0735 63.4705 54.0466C71.86 59.1461 66.7957 65.2052 63.7291 70.0854M81.7417 60.2154C83.5227 58.2707 86.2957 57.436 88.0632 57.2544C91.0517 56.4867 97.1272 56.9418 97.522 64.9036C97.6292 67.0655 97.2698 68.763 96.6291 70.0854M81.7417 60.2154C80.5668 61.4981 79.8234 63.2639 80.085 65.6439C80.743 71.6317 86.2812 73.9511 88.968 74.3624C91.1649 74.4821 94.9099 73.633 96.6291 70.0854M81.7417 60.2154C83.465 57.6929 89.8341 50.0735 96.3705 54.0466C104.76 59.1461 99.6957 65.2052 96.6291 70.0854M70.3568 183.031C69.1069 181.506 67.8261 177.043 73.2582 173.391M70.3568 183.031C70.9202 183.719 72.8279 184.844 76.0179 184.084M70.3568 183.031C69.3986 183.302 67.9597 183.952 66.596 185.038M73.2582 173.391C80.0483 168.826 82.8611 171.133 84.3995 172.809C85.1575 173.725 85.8778 175.572 84.8555 177.75M76.0179 184.084C77.3309 183.771 78.8614 183.139 80.6048 182.026C82.8874 180.568 84.224 179.096 84.8555 177.75M76.0179 184.084C77.2988 186.499 77.7188 189.085 77.4878 191.488M66.596 185.038C64.9656 186.336 63.4427 188.259 62.977 190.91C62.9176 191.248 62.872 191.583 62.8396 191.914C62.623 194.128 63.0013 196.163 63.8569 197.737M66.596 185.038C65.0184 185.798 63.5509 186.025 62.319 185.831M84.8555 177.75H89.1823M77.4878 191.488C77.1518 194.983 75.4372 198.089 72.9911 199.711M77.4878 191.488C81.0305 191.391 84.5646 191.3 88.0543 191.218M63.8569 197.737C64.2826 198.522 64.8266 199.191 65.4744 199.711M63.8569 197.737C61.7181 199.683 59.8571 200.685 58.2887 200.991M65.4744 199.711C66.8343 200.805 68.6514 201.241 70.7907 200.698C71.5716 200.501 72.3097 200.164 72.9911 199.711M65.4744 199.711C63.592 200.738 60.0201 203.733 59.8393 207.888C59.8268 208.173 59.8304 208.463 59.8515 208.759C60.1111 212.394 61.0517 215.699 62.977 217.436M72.9911 199.711C74.4712 202.116 75.2738 205.102 75.2768 207.992M62.977 217.436C63.5253 217.931 64.1536 218.298 64.8687 218.51M62.977 217.436C61.2157 218.53 59.6557 219.185 58.2887 219.486M75.2768 207.992C75.2806 211.823 73.88 215.485 70.7907 217.4M75.2768 207.992C80.4436 208.023 85.7086 208.051 91.0382 208.076M64.8687 218.51C65.62 218.732 66.4672 218.783 67.4185 218.629C68.7108 218.418 69.832 217.994 70.7907 217.4M64.8687 218.51C62.9222 219.783 59.1935 223.942 59.8515 230.39C60.1736 233.547 61.6513 235.426 63.3882 236.493M58.2887 219.486C55.6567 221.695 50.6888 227.66 51.8732 233.845C52.8367 238.877 56.7957 239.777 59.8515 238.948M70.7907 217.4C76.5831 228.239 75.146 233.718 72.3535 236.132M63.3882 236.493C63.7102 236.691 64.0411 236.862 64.3752 237.007M63.3882 236.493C62.8712 237.561 61.4914 238.504 59.8515 238.948M72.3535 236.132C71.2125 237.119 69.8452 237.592 68.6522 237.711C67.5356 237.814 65.9212 237.678 64.3752 237.007M72.3535 236.132C79.2325 249.852 73.834 253.832 69.886 254.407C68.2084 254.653 66.3971 254.5 64.8687 253.643M59.8515 238.948C57.4937 242.238 53.6498 248.403 57.1372 252.351C60.6246 256.299 63.7447 254.857 64.8687 253.643M64.3752 237.007C63.3882 238.615 62.1545 241.247 61.2497 245.524C60.3172 249.933 62.8001 252.481 64.8687 253.643M101.41 187.543C102.478 188.884 103.913 189.585 104.886 189.78C105.756 189.925 107.072 189.812 108.38 189.068M101.41 187.543C99.4238 184.316 99.7572 179.435 100.248 178.379C100.392 177.864 100.996 174.974 101.156 174.53M101.41 187.543C100.254 188.244 98.7177 189.44 97.3493 191.009M108.38 189.068C110.028 188.132 114.299 183.916 115.01 180.246C115.265 179.418 115.349 178.576 115.288 177.75M108.38 189.068C108.57 189.65 108.743 190.231 108.898 190.807M101.156 174.53C102.537 170.715 104.959 170.825 106.436 170.731M101.156 174.53C100.498 173.253 96.978 171.34 94.5704 172.06M97.3493 191.009C96.6179 191.846 95.9344 192.791 95.3822 193.822C94.2497 195.936 93.6697 198.413 94.3624 201.09C94.7585 202.99 96.2923 207.048 99.2589 208.074M97.3493 191.009C95.0869 190.716 93.379 189.996 92.1081 189.007M115.288 177.75C114.98 173.556 110.927 169.802 106.436 170.731M115.288 177.75H148.389M108.898 190.807C110.784 197.8 110.091 204.115 106.787 207.219M108.898 190.807C125.443 190.565 138.708 190.623 143.5 191.239C146.966 191.687 152.444 191.94 158.954 192.062M106.787 207.219C104.809 209.076 101.856 209.459 99.2589 208.074M99.2589 208.074C96.8602 209.961 95.449 212.406 94.8294 214.904C93.7998 219.058 94.9573 223.36 97.4034 225.488M106.436 170.731C106.107 165.571 98.191 162.932 95.2989 167.981C94.409 169.534 94.5704 172.06 94.5704 172.06M94.5704 172.06C93.0642 172.085 90.4889 173.48 89.5094 176.545C89.3909 176.915 89.28 177.319 89.1823 177.75M89.1823 177.75C88.4128 181.146 88.463 186.175 92.1081 189.007M104.825 225.557C101.87 227.472 99.2639 227.109 97.4034 225.488M104.825 225.557C111.663 239.709 105.842 241.483 103.95 242.84M97.4034 225.488C96.9145 225.949 96.2552 226.497 95.6184 227.263M103.95 242.84C102.671 243.758 100.76 243.879 98.9225 243.161M103.95 242.84C106.727 247.607 109.883 255.73 106.995 259.54C106.479 260.221 105.831 260.691 105.108 260.973M95.6184 227.263C94.3988 228.732 93.2616 231.004 93.5608 235.013C93.8938 239.474 96.3358 242.149 98.9225 243.161M95.6184 227.263C94.5222 227.763 92.6776 228.132 90.7612 227.574M98.9225 243.161C98.4289 243.781 97.8034 244.727 97.2216 245.881M105.108 260.973C103.388 261.641 101.238 261.236 99.4081 260.025M105.108 260.973C108.167 270.167 103.825 279.606 98.5651 273.43C98.2568 273.068 97.9873 272.7 97.7534 272.328M97.2216 245.881C96.0124 248.28 94.9907 251.58 95.7265 254.738C96.267 257.058 97.698 258.893 99.4081 260.025M97.2216 245.881C96.2293 246.493 95.0106 246.868 93.746 246.951M99.4081 260.025C98.8151 260.728 98.1387 261.739 97.582 262.943M97.582 262.943C96.3629 262.999 94.6139 262.859 92.9785 262.31M97.582 262.943C96.369 265.569 95.725 269.102 97.7534 272.328M97.7534 272.328C97.455 272.376 96.1831 272.017 93.4827 270.211C90.7824 268.405 92.0214 264.192 92.9785 262.31M92.1081 189.007C90.9719 189.29 89.4106 189.991 88.0543 191.218M88.0543 191.218C86.1503 192.939 84.6498 195.694 85.2952 199.772C86.1614 205.247 88.7622 207.434 91.4967 207.678M91.4967 207.678C93.1229 207.823 95.291 207.076 96.6751 206.127M91.4967 207.678C91.349 207.801 91.1956 207.935 91.0382 208.076M91.0382 208.076C87.8846 210.905 83.0137 217.217 85.6951 222.823C87.0649 225.687 88.9453 227.046 90.7612 227.574M90.7612 227.574C88.9607 229.403 85.4992 234.473 86.0567 240.109C86.5655 245.251 90.3235 247.173 93.746 246.951M93.746 246.951C91.8856 248.36 88.2422 252.397 88.5523 257.257C88.7313 260.06 90.7495 261.563 92.9785 262.31M148.389 177.75C143.909 171.118 138.153 161.547 138.153 161.547L128.119 167.469C125.13 156.53 119.154 130.769 119.154 115.24M148.389 177.75C148.657 178.145 148.918 178.53 149.175 178.902C152.004 183.003 155.929 188.167 158.954 192.062M119.154 115.24C127.242 118.037 148.978 126.936 171.218 140.162M119.154 115.24L136.179 112.526L184.46 135.721M171.218 140.162L160.937 148.469M171.218 140.162L184.46 135.721M184.46 135.721L171.218 148.469M160.937 148.469H171.218M160.937 148.469L186.681 182.768M47.6785 35.129C48.1162 32.9783 48.6031 30.2329 48.9948 27.4035M48.9948 27.4035C50.345 27.3639 51.7314 27.3228 53.1501 27.2803M55.081 33.2372C54.42 31.733 53.6237 29.5128 53.1501 27.2803M53.1501 27.2803C52.4844 24.1415 52.4565 20.9787 54.3407 19.7482C57.5649 17.6426 58.9742 20.79 59.2757 22.627C59.7967 19.9675 61.4965 14.6816 64.1285 14.8132C66.0095 14.9073 65.2018 21.1687 63.9873 26.9558M62.4835 33.2372C62.9528 31.5007 63.5026 29.266 63.9873 26.9558M63.9873 26.9558C92.4572 26.1086 128.91 25.1228 151.56 25.9992C154.939 26.13 158.542 26.2496 162.31 26.3593M166.447 34.7177C165.115 32.6315 163.289 29.3098 162.31 26.3593M162.31 26.3593C161.435 23.726 161.236 21.3883 162.664 20.4885C165.691 18.5803 169.848 25.0122 171.547 28.4667C170.177 23.3124 168.783 12.3786 174.179 9.87821C179.575 7.37781 180.047 21.8319 179.607 29.3715C180.594 25.5332 184.033 18.1197 189.889 19.1725C193.253 19.7772 192.996 23.2507 191.545 26.9969M187.339 34.7177C188.739 32.6988 190.471 29.773 191.545 26.9969M191.545 26.9969C192.792 27.0175 194.042 27.0374 195.293 27.0568M195.153 34.142C194.862 32.3109 194.69 29.3344 195.293 27.0568" stroke="#00827A" stroke-width="2.4675" stroke-linecap="round" stroke-linejoin="round"/>
<path d="M96.864 127.482C96.864 137.256 88.2207 145.18 78.3613 145.18C68.502 145.18 60.5095 137.256 60.5095 127.482C60.5095 117.707 68.502 110.964 78.3613 110.964C88.2207 110.964 96.864 117.707 96.864 127.482Z" fill="#00827A"/>
<path d="M60.5095 103.941C60.5095 105.821 58.4366 107.345 56.0723 107.345C53.7077 107.345 51.791 105.821 51.791 103.941C51.791 102.062 53.7077 100.765 56.0723 100.765C58.4366 100.765 60.5095 102.062 60.5095 103.941Z" fill="#00827A"/>
<path d="M174.015 101.031C174.015 102.065 172.881 102.903 171.586 102.903C170.294 102.903 169.244 102.065 169.244 101.031C169.244 99.9972 170.294 99.2839 171.586 99.2839C172.881 99.2839 174.015 99.9972 174.015 101.031Z" fill="#00827A"/>
<path d="M192.109 121.903C193.001 122.582 193.179 123.732 192.419 124.727C191.66 125.722 190.323 125.978 189.431 125.298C188.541 124.619 188.541 123.343 189.3 122.348C190.06 121.353 191.218 121.223 192.109 121.903Z" fill="#00827A"/>
<path d="M197.374 107.821C197.374 110.828 194.092 113.266 190.348 113.266C186.604 113.266 184.872 110.828 184.872 107.821C184.872 104.813 186.604 102.738 190.348 102.738C194.092 102.738 197.374 104.813 197.374 107.821Z" fill="#00827A"/>
<path d="M104.266 151.243C104.266 154.346 101.333 156.859 97.9874 156.859C94.6414 156.859 91.929 154.346 91.929 151.243C91.929 148.142 94.6414 146.002 97.9874 146.002C101.333 146.002 104.266 148.142 104.266 151.243Z" fill="#00827A"/>
</svg>
