<svg width="132" height="66" viewBox="0 0 132 66" fill="none" xmlns="http://www.w3.org/2000/svg">
<path d="M14.4169 17.8479C14.1362 17.6793 13.7733 17.7725 13.6063 18.0561C13.4395 18.3396 13.5317 18.7063 13.8125 18.8749L14.4169 17.8479ZM17.0684 18.2464C17.2668 17.9843 17.2172 17.6093 16.9578 17.4089C16.6984 17.2084 16.3272 17.2584 16.1288 17.5205L17.0684 18.2464ZM114.117 42.4694C113.906 42.218 113.533 42.1874 113.283 42.4011C113.035 42.6148 113.004 42.9918 113.216 43.2435L114.117 42.4694ZM115.64 43.817C115.947 43.7063 116.108 43.3645 115.998 43.0539C115.888 42.743 115.55 42.581 115.242 42.692L115.64 43.817ZM117.578 42.7879C117.389 42.5194 117.019 42.4571 116.753 42.649C116.487 42.8408 116.426 43.214 116.616 43.4824L117.578 42.7879ZM119.339 43.7859C119.629 43.6354 119.743 43.2745 119.594 42.9814C119.445 42.6879 119.088 42.5724 118.798 42.7233L119.339 43.7859ZM115.416 44.6152C115.18 44.3873 114.805 44.3953 114.58 44.6343C114.354 44.8725 114.362 45.2508 114.599 45.4787L115.416 44.6152ZM117.307 45.7033C117.579 45.5201 117.652 45.1497 117.471 44.8749C117.289 44.6 116.923 44.526 116.65 44.7092L117.307 45.7033ZM22.5493 57.5365L21.9589 57.5716C21.9599 57.5867 21.9613 57.6019 21.9634 57.6178L22.5493 57.5365ZM85.0414 59.4555L85.1234 58.8636C85.1022 58.8605 85.0801 58.8589 85.0588 58.8581L85.0414 59.4555ZM94.0717 59.4651L94.0386 58.8692C93.7263 58.8867 93.4811 59.1472 93.4803 59.4635L94.0717 59.4651ZM45.9692 5.6053C45.9416 5.27655 45.6554 5.03264 45.3299 5.0606C45.0044 5.08848 44.763 5.37764 44.7907 5.70647L45.9692 5.6053ZM45.4982 16.8479C45.4982 17.1778 45.763 17.4453 46.0896 17.4453C46.4162 17.4453 46.681 17.1778 46.681 16.8479H45.4982ZM52.0824 5.65589C52.0824 5.32594 51.8176 5.05845 51.491 5.05845C51.1644 5.05845 50.8996 5.32594 50.8996 5.65589H52.0824ZM50.8996 17.3657C50.8996 17.6956 51.1644 17.9631 51.491 17.9631C51.8176 17.9631 52.0824 17.6956 52.0824 17.3657H50.8996ZM56.3799 16.8479L55.7899 16.8886L55.8276 17.4453H56.3799V16.8479ZM60.5197 17.4453C60.8463 17.4453 61.1111 17.1778 61.1111 16.8479C61.1111 16.5179 60.8463 16.2504 60.5197 16.2504V17.4453ZM55.828 8.6829L55.7784 8.08753L55.1982 8.13684L55.2379 8.72361L55.828 8.6829ZM60.5692 8.87998C60.8947 8.85233 61.1363 8.56341 61.1091 8.23458C61.0817 7.90576 60.7957 7.6616 60.4702 7.68924L60.5692 8.87998ZM60.1649 13.3628C60.4915 13.3628 60.7563 13.0953 60.7563 12.7654C60.7563 12.4354 60.4915 12.168 60.1649 12.168V13.3628ZM63.7913 8.2541C63.7747 7.92455 63.4967 7.67108 63.1705 7.68797C62.8443 7.70478 62.5934 7.98557 62.6101 8.31512L63.7913 8.2541ZM63.6344 16.8479L63.0438 16.8784L63.0759 17.5131L63.701 17.4415L63.6344 16.8479ZM67.5258 17.0034C67.8499 16.9663 68.0833 16.6703 68.0462 16.3424C68.01 16.0146 67.7166 15.7789 67.3918 15.8161L67.5258 17.0034ZM69.9797 7.67244C69.9497 7.34384 69.6619 7.10192 69.3363 7.13203C69.0114 7.16222 68.7717 7.45298 68.8017 7.78157L69.9797 7.67244ZM70.1792 16.4098L69.5902 16.4643L69.6462 17.0818L70.2549 17.0023L70.1792 16.4098ZM73.6062 16.5641C73.9303 16.5218 74.1589 16.2222 74.1171 15.8949C74.0753 15.5678 73.7789 15.3368 73.4548 15.3791L73.6062 16.5641ZM77.9462 6.93042V6.33298H77.8981L77.8508 6.34071L77.9462 6.93042ZM86.4608 3.82358C86.4395 3.49436 86.1572 3.24535 85.8315 3.26749C85.5051 3.28956 85.2591 3.57434 85.2812 3.90356L86.4608 3.82358ZM85.8726 12.8054C85.8938 13.1346 86.1761 13.3836 86.5018 13.3615C86.8282 13.3394 87.0743 13.0546 87.0522 12.7254L85.8726 12.8054ZM87.0538 15.0556C87.0538 14.7256 86.7888 14.4581 86.4624 14.4581C86.1359 14.4581 85.871 14.7256 85.871 15.0556H87.0538ZM85.871 15.5733C85.871 15.9033 86.1359 16.1708 86.4624 16.1708C86.7888 16.1708 87.0538 15.9033 87.0538 15.5733H85.871ZM107.989 12.5463C107.989 12.2164 107.724 11.9489 107.398 11.9489C107.071 11.9489 106.806 12.2164 106.806 12.5463H107.989ZM106.806 12.626C106.806 12.9559 107.071 13.2234 107.398 13.2234C107.724 13.2234 107.989 12.9559 107.989 12.626H106.806ZM82.8746 51.0213C82.8746 50.6915 82.6096 50.4239 82.2832 50.4239C81.9567 50.4239 81.6918 50.6915 81.6918 51.0213H82.8746ZM81.6918 51.1009C81.6918 51.4307 81.9567 51.6984 82.2832 51.6984C82.6096 51.6984 82.8746 51.4307 82.8746 51.1009H81.6918ZM107.989 15.2945C107.989 14.9646 107.724 14.6971 107.398 14.6971C107.071 14.6971 106.806 14.9646 106.806 15.2945H107.989ZM106.806 15.3742C106.806 15.7041 107.071 15.9716 107.398 15.9716C107.724 15.9716 107.989 15.7041 107.989 15.3742H106.806ZM82.8746 53.7695C82.8746 53.4397 82.6096 53.1721 82.2832 53.1721C81.9567 53.1721 81.6918 53.4397 81.6918 53.7695H82.8746ZM81.6918 53.8492C81.6918 54.1789 81.9567 54.4466 82.2832 54.4466C82.6096 54.4466 82.8746 54.1789 82.8746 53.8492H81.6918ZM105.151 16.6747C105.477 16.6747 105.742 16.4072 105.742 16.0773C105.742 15.7473 105.477 15.4798 105.151 15.4798V16.6747ZM102.204 12.7987C102.126 13.1191 102.32 13.4427 102.637 13.5215C102.954 13.6002 103.275 13.4043 103.353 13.0839L102.204 12.7987ZM119.246 0.748377C119.328 0.429106 119.139 0.102747 118.823 0.0195039C118.507 -0.0638187 118.184 0.127519 118.101 0.44679L119.246 0.748377ZM115.496 0.708309C115.404 0.391747 115.076 0.210285 114.762 0.303087C114.449 0.395889 114.269 0.727823 114.361 1.04447L115.496 0.708309ZM112.291 0.88308C112.099 0.616384 111.729 0.557674 111.465 0.75196C111.202 0.946247 111.143 1.32 111.336 1.58662L112.291 0.88308ZM77.2949 49.7938C76.9685 49.7938 76.7035 50.0606 76.7035 50.3912C76.7035 50.721 76.9685 50.9886 77.2949 50.9886V49.7938ZM76.7768 53.697C76.5915 53.4254 76.2233 53.3569 75.9544 53.5441C75.6855 53.7313 75.6177 54.1033 75.8038 54.3749L76.7768 53.697ZM85.6021 49.8862C85.6021 49.5564 85.3371 49.2887 85.0107 49.2887C84.6842 49.2887 84.4193 49.5564 84.4193 49.8862H85.6021ZM86.0176 53.893C86.072 54.2188 86.3764 54.4386 86.6989 54.3845C87.0206 54.3295 87.2383 54.022 87.1847 53.6962L86.0176 53.893ZM89.1323 53.5656C88.8524 53.3959 88.4889 53.4875 88.3209 53.7711C88.153 54.0539 88.2437 54.4203 88.5236 54.5908L89.1323 53.5656ZM89.3137 49.9459L89.2687 49.3501L88.7223 49.3923V49.9459H89.3137ZM91.9387 50.3426C92.2644 50.3171 92.508 50.0303 92.4836 49.7014C92.4584 49.3724 92.1745 49.1262 91.8488 49.1509L91.9387 50.3426ZM29.8053 43.774C29.7845 43.445 29.5033 43.1949 29.1774 43.2164C28.8514 43.2371 28.604 43.5207 28.6248 43.8504L29.8053 43.774ZM29.4922 57.5748C29.513 57.9038 29.7942 58.1539 30.1201 58.1324C30.4461 58.1117 30.6935 57.8273 30.6727 57.4983L29.4922 57.5748ZM36.2724 43.8122C36.2724 43.4824 36.0076 43.2148 35.681 43.2148C35.3544 43.2148 35.0896 43.4824 35.0896 43.8122H36.2724ZM35.0896 56.9558C35.0896 57.2856 35.3544 57.5533 35.681 57.5533C36.0076 57.5533 36.2724 57.2856 36.2724 56.9558H35.0896ZM40.1362 47.5163V46.9189H39.5448V47.5163H40.1362ZM40.1362 56.2787H39.5448V56.8762H40.1362V56.2787ZM44.7491 56.8762C45.0757 56.8762 45.3405 56.6085 45.3405 56.2787C45.3405 55.9489 45.0757 55.6813 44.7491 55.6813V56.8762ZM44.0789 48.1138C44.4055 48.1138 44.6703 47.8461 44.6703 47.5163C44.6703 47.1865 44.4055 46.9189 44.0789 46.9189V48.1138ZM44.0789 52.495C44.4055 52.495 44.6703 52.2273 44.6703 51.8975C44.6703 51.5677 44.4055 51.3001 44.0789 51.3001V52.495ZM48.4076 47.6151C48.4616 47.2893 48.2443 46.9818 47.9221 46.9268C47.6 46.8727 47.2951 47.0925 47.2411 47.4175L48.4076 47.6151ZM52.919 47.7067C53.0231 47.3937 52.8565 47.0551 52.5468 46.95C52.2372 46.8448 51.9019 47.0129 51.7979 47.3259L52.919 47.7067ZM48.5022 55.7052C48.1886 55.6128 47.8603 55.7952 47.7691 56.1115C47.6778 56.4285 47.858 56.7599 48.1716 56.8523L48.5022 55.7052ZM58.3112 43.5055C58.2961 43.1765 58.0194 42.9214 57.6931 42.9366C57.3669 42.9518 57.1146 43.2315 57.1297 43.5613L58.3112 43.5055ZM57.5634 53.0406C57.5784 53.3696 57.8552 53.6245 58.1814 53.6094C58.5077 53.5942 58.76 53.3147 58.7449 52.9849L57.5634 53.0406ZM58.7455 54.9245C58.7455 54.5948 58.4807 54.3271 58.1541 54.3271C57.8275 54.3271 57.5627 54.5948 57.5627 54.9245H58.7455ZM57.5627 55.6016C57.5627 55.9314 57.8275 56.1991 58.1541 56.1991C58.4807 56.1991 58.7455 55.9314 58.7455 55.6016H57.5627ZM94.0551 39.7013C94.1379 39.382 93.9487 39.0557 93.6325 38.9724C93.3163 38.8891 92.993 39.0804 92.911 39.3997L94.0551 39.7013ZM90.3049 39.6612C90.2134 39.3447 89.8846 39.1632 89.5715 39.256C89.2577 39.3488 89.0779 39.6807 89.1702 39.9974L90.3049 39.6612ZM1.1828 16.7751C1.1828 8.67501 7.45248 3.06699 15.2665 3.06699V1.87212C6.87086 1.87212 0 7.94503 0 16.7751H1.1828ZM15.2665 3.06699C23.1091 3.06699 29.8853 8.70138 29.8853 16.7751H31.0681C31.0681 7.91866 23.6338 1.87212 15.2665 1.87212V3.06699ZM15.2665 31.505C14.2386 31.505 13.2371 31.3899 12.2727 31.1716L12.014 32.3376C13.0626 32.575 14.1509 32.6999 15.2665 32.6999V31.505ZM12.2727 31.1716C5.94521 29.7392 1.1828 23.8483 1.1828 16.7751H0C0 24.3932 5.13262 30.7798 12.014 32.3376L12.2727 31.1716ZM12.6811 31.5058C11.145 28.1179 9.30963 22.8756 8.7765 18.1592C8.50966 15.7987 8.57519 13.6205 9.12969 11.8858C9.67708 10.1734 10.6913 8.9116 12.35 8.28676L11.9368 7.16724C9.87358 7.94439 8.63914 9.53198 8.00414 11.5187C7.37615 13.4831 7.32537 15.8539 7.60128 18.2947C8.15364 23.181 10.0401 28.5504 11.6057 32.0033L12.6811 31.5058ZM29.8853 16.7751C29.8853 21.2085 27.8534 25.1922 24.7297 27.8989L25.4997 28.8059C28.8625 25.8921 31.0681 21.5867 31.0681 16.7751H29.8853ZM24.7297 27.8989C22.1331 30.1487 18.7945 31.505 15.2665 31.505V32.6999C19.0967 32.6999 22.7042 31.2281 25.4997 28.8059L24.7297 27.8989ZM12.35 8.28676C13.4176 7.88464 14.3466 7.83605 15.1668 8.03416C15.9909 8.23323 16.7492 8.69222 17.4532 9.37473C18.8764 10.7545 20.0142 12.9852 20.9425 15.5259C21.8657 18.0527 22.5562 20.8121 23.1228 23.1943C23.4045 24.3791 23.6576 25.4791 23.8908 26.3946C24.1217 27.3011 24.3448 28.0754 24.5746 28.5958L25.6548 28.109C25.4706 27.6919 25.2686 27.0089 25.0363 26.0968C24.8062 25.1937 24.5578 24.1136 24.2729 22.9152C23.7058 20.5309 23.0017 17.7111 22.0521 15.1122C21.1077 12.5272 19.8946 10.0856 18.2721 8.51267C17.4533 7.71879 16.5151 7.13132 15.4418 6.87211C14.3645 6.61187 13.1953 6.69312 11.9368 7.16724L12.35 8.28676ZM12.9504 15.6444C12.7703 16.3518 12.0656 16.7705 11.3846 16.5937L11.0901 17.7509C12.4138 18.0946 13.7558 17.2783 14.0958 15.9418L12.9504 15.6444ZM11.3846 16.5937C10.7541 16.4299 10.3933 15.7922 10.5871 15.0307L9.44155 14.7333C9.11525 16.0157 9.71596 17.3941 11.0901 17.7509L11.3846 16.5937ZM10.5871 15.0307C10.6825 14.6556 10.8751 14.4189 11.0954 14.2897C11.3171 14.1599 11.6207 14.1076 11.9926 14.2043L12.287 13.047C11.6565 12.8833 11.0274 12.9483 10.502 13.2562C9.97515 13.5648 9.60611 14.0864 9.44155 14.7333L10.5871 15.0307ZM17.786 12.8877C18.5346 13.0821 18.9072 13.6852 18.7438 14.3278L19.8893 14.6253C20.2458 13.224 19.3365 12.0566 18.0805 11.7305L17.786 12.8877ZM18.7438 14.3278C18.5637 15.0353 17.859 15.4539 17.1781 15.2771L16.8836 16.4344C18.2072 16.7781 19.5492 15.9618 19.8893 14.6253L18.7438 14.3278ZM16.3805 13.7142C16.4759 13.3391 16.6685 13.1023 16.8888 12.9732C17.1106 12.8433 17.4141 12.7911 17.786 12.8877L18.0805 11.7305C17.45 11.5667 16.8209 11.6318 16.2954 11.9396C15.7686 12.2483 15.3995 12.7698 15.235 13.4168L16.3805 13.7142ZM11.9926 14.2043C12.5146 14.3398 12.8494 14.6823 12.9529 15.0619L14.0932 14.7448C13.8602 13.8894 13.1533 13.2719 12.287 13.047L11.9926 14.2043ZM12.9529 15.0619C12.9994 15.2325 13.0054 15.4277 12.9504 15.6444L14.0958 15.9418C14.2006 15.53 14.1962 15.1227 14.0932 14.7448L12.9529 15.0619ZM17.1781 15.2771C16.6933 15.1512 16.3923 14.767 16.338 14.2716L15.1624 14.4031C15.2656 15.3445 15.8783 16.1733 16.8836 16.4344L17.1781 15.2771ZM16.338 14.2716C16.319 14.0977 16.331 13.9089 16.3805 13.7142L15.235 13.4168C15.151 13.7468 15.1271 14.0809 15.1624 14.4031L16.338 14.2716ZM13.6674 15.4828L15.8945 14.9168L15.606 13.758L13.3788 14.324L13.6674 15.4828ZM13.8125 18.8749C14.1372 19.07 14.666 19.2617 15.2577 19.2351C15.8764 19.2073 16.5438 18.9392 17.0684 18.2464L16.1288 17.5205C15.8332 17.9111 15.5019 18.028 15.2052 18.0414C14.8815 18.0559 14.5784 17.9449 14.4169 17.8479L13.8125 18.8749ZM103.219 43.7596C103.219 36.0032 109.244 30.6288 116.76 30.6288V29.4339C108.666 29.4339 102.036 35.2693 102.036 43.7596H103.219ZM116.76 30.6288C124.306 30.6288 130.817 36.0295 130.817 43.7596H132C132 35.243 124.826 29.4339 116.76 29.4339V30.6288ZM116.76 57.8719C114.462 57.8719 112.299 57.2761 110.403 56.2238L109.834 57.2705C111.898 58.4168 114.256 59.0668 116.76 59.0668V57.8719ZM110.403 56.2238C106.133 53.8531 103.219 49.1645 103.219 43.7596H102.036C102.036 49.605 105.189 54.6919 109.834 57.2705L110.403 56.2238ZM110.709 56.7161C110.539 53.4102 110.666 48.4531 111.587 44.3228C112.048 42.2547 112.698 40.4416 113.574 39.1496C114.442 37.8693 115.49 37.1541 116.776 37.1208L116.745 35.9262C114.962 35.9725 113.604 36.9907 112.598 38.4743C111.6 39.9462 110.908 41.9275 110.433 44.0607C109.48 48.3344 109.355 53.4094 109.528 56.7782L110.709 56.7161ZM130.817 43.7596C130.817 49.5635 127.166 54.5661 122.186 56.7312L122.653 57.8289C128.029 55.4917 132 50.0821 132 43.7596H130.817ZM122.186 56.7312C120.495 57.4656 118.656 57.8719 116.76 57.8719V59.0668C118.824 59.0668 120.823 58.6247 122.653 57.8289L122.186 56.7312ZM116.776 37.1208C118.037 37.0879 119.029 37.7596 119.827 39.0361C120.636 40.3311 121.199 42.1854 121.559 44.3228C122.278 48.5869 122.163 53.7583 121.831 57.2227L123.008 57.3374C123.346 53.8165 123.469 48.5296 122.725 44.1221C122.354 41.9238 121.759 39.8887 120.827 38.3982C119.884 36.8893 118.551 35.8794 116.745 35.9262L116.776 37.1208ZM113.216 43.2435C113.553 43.6441 114.465 44.2408 115.64 43.817L115.242 42.692C114.651 42.9054 114.227 42.5999 114.117 42.4694L113.216 43.2435ZM116.616 43.4824C117.007 44.036 118.011 44.475 119.339 43.7859L118.798 42.7233C118.343 42.9592 118.036 42.9645 117.858 42.9286C117.766 42.91 117.697 42.8781 117.65 42.8475C117.626 42.8322 117.608 42.8176 117.595 42.8059C117.583 42.7939 117.577 42.7868 117.578 42.7879L116.616 43.4824ZM114.599 45.4787C115.005 45.8714 116.13 46.4959 117.307 45.7033L116.65 44.7092C116.124 45.0636 115.614 44.8063 115.416 44.6152L114.599 45.4787ZM23.1397 57.5015C22.8862 53.1442 22.5783 49.828 22.354 45.4938L21.1728 45.5559C21.3952 49.8527 21.7106 53.3043 21.9589 57.5716L23.1397 57.5015ZM40.1783 38.9914C51.2572 38.1928 78.6717 36.7963 93.2855 36.2918L93.2445 35.0976C78.6204 35.6025 51.1911 36.9997 40.0941 37.7995L40.1783 38.9914ZM97.2676 40.6799C97.4742 42.9772 97.8629 45.4181 98.1957 47.8063C98.53 50.2088 98.8092 52.5698 98.8147 54.7684L99.9975 54.766C99.992 52.479 99.7018 50.0479 99.3667 47.6398C99.0292 45.2174 98.6491 42.8303 98.4457 40.5718L97.2676 40.6799ZM76.2485 58.8692C67.3271 59.438 54.6606 59.8785 45.4561 60.542L45.5402 61.7337C54.7809 61.0678 67.3058 60.636 76.3234 60.0617L76.2485 58.8692ZM45.4561 60.542C42.1275 60.7818 34.0065 61.4071 27.605 61.7688L27.671 62.9621C34.0846 62.5996 42.2214 61.9727 45.5402 61.7337L45.4561 60.542ZM27.7025 39.8965C32.8912 39.3214 38.4431 39.1164 40.1783 38.9914L40.0941 37.7995C38.4256 37.9198 32.7877 38.1309 27.5735 38.7087L27.7025 39.8965ZM93.2855 36.2918C94.2381 36.2589 95.1725 36.7467 95.9168 37.5825C96.6604 38.4175 97.1659 39.5505 97.2676 40.6799L98.4457 40.5718C98.3203 39.1761 97.7045 37.8029 96.7961 36.7833C95.8885 35.7646 94.6402 35.0494 93.2445 35.0976L93.2855 36.2918ZM22.354 45.4938C22.29 44.2575 22.6301 42.9749 23.4634 41.9515C24.2906 40.9353 25.6444 40.1245 27.7025 39.8965L27.5735 38.7087C25.2551 38.9656 23.601 39.9011 22.5498 41.1925C21.5046 42.4764 21.0956 44.0631 21.1728 45.5559L22.354 45.4938ZM21.9634 57.6178C22.3805 60.6918 24.664 63.1317 27.671 62.9621L27.605 61.7688C25.369 61.8946 23.4916 60.0824 23.1352 57.4553L21.9634 57.6178ZM85.0588 58.8581C82.127 58.7736 79.1976 58.6812 76.2485 58.8692L76.3234 60.0617C79.2087 59.8777 82.0813 59.9669 85.0249 60.0521L85.0588 58.8581ZM84.9602 60.0474C85.1976 60.08 85.4065 60.0976 85.5847 60.1111C85.7692 60.1254 85.9088 60.1358 86.0389 60.1549C86.2715 60.1892 86.4529 60.2481 86.6729 60.4106C86.9142 60.5898 87.2209 60.9093 87.657 61.5123C88.0907 62.1121 88.6316 62.9613 89.3476 64.1713L90.3624 63.5587C89.6409 62.3383 89.0787 61.4525 88.6119 60.8073C88.149 60.1669 87.7579 59.7335 87.3731 59.4475C86.9662 59.1464 86.5925 59.0293 86.2093 58.9728C86.031 58.9465 85.8465 58.933 85.6762 58.9202C85.4996 58.9059 85.3214 58.8915 85.1234 58.8636L84.9602 60.0474ZM89.3476 64.1713C89.8601 65.038 90.5785 65.672 91.3221 65.9046C91.699 66.0225 92.109 66.0433 92.493 65.8975C92.8865 65.7485 93.1917 65.4482 93.3841 65.0419L92.3172 64.5266C92.2407 64.6875 92.1524 64.7504 92.0783 64.7783C91.9947 64.8101 91.8614 64.8221 91.6714 64.7631C91.2819 64.6413 90.7717 64.2493 90.3624 63.5587L89.3476 64.1713ZM93.3841 65.0419C93.627 64.5289 93.9432 63.4982 94.1955 62.4515C94.4478 61.4047 94.6607 60.2433 94.6631 59.4675L93.4803 59.4635C93.4787 60.088 93.2958 61.1331 93.0458 62.1687C92.7958 63.205 92.5033 64.133 92.3172 64.5266L93.3841 65.0419ZM98.8147 54.7684C98.8179 56.4627 98.2785 57.3924 97.5018 57.9492C96.6778 58.5394 95.4855 58.788 94.0386 58.8692L94.1048 60.0617C95.5975 59.9781 97.0768 59.7192 98.1862 58.9234C99.3438 58.0933 100.001 56.7559 99.9975 54.766L98.8147 54.7684ZM44.7907 5.70647C44.926 7.31676 45.1389 10.0304 45.296 12.4657L46.4762 12.388C46.3186 9.94262 46.105 7.22077 45.9692 5.6053L44.7907 5.70647ZM45.296 12.4657C45.4134 14.2862 45.4982 15.9316 45.4982 16.8479H46.681C46.681 15.8868 46.5933 14.2038 46.4762 12.388L45.296 12.4657ZM45.9399 13.0218L51.5449 12.504L51.4372 11.3141L45.8322 11.8319L45.9399 13.0218ZM50.8996 5.65589V11.9091H52.0824V5.65589H50.8996ZM50.8996 11.9091V17.3657H52.0824V11.9091H50.8996ZM56.3799 17.4453H60.5197V16.2504H56.3799V17.4453ZM55.8775 9.27827L60.5692 8.87998L60.4702 7.68924L55.7784 8.08753L55.8775 9.27827ZM55.2379 8.72361L55.5139 12.8061L56.694 12.7247L56.418 8.6422L55.2379 8.72361ZM55.5139 12.8061L55.7899 16.8886L56.97 16.8072L56.694 12.7247L55.5139 12.8061ZM56.1039 13.3628H60.1649V12.168H56.1039V13.3628ZM62.6101 8.31512L63.0438 16.8784L64.225 16.8174L63.7913 8.2541L62.6101 8.31512ZM63.701 17.4415L67.5258 17.0034L67.3918 15.8161L63.5678 16.2543L63.701 17.4415ZM68.8017 7.78157L69.5902 16.4643L70.7682 16.3552L69.9797 7.67244L68.8017 7.78157ZM70.2549 17.0023L73.6062 16.5641L73.4548 15.3791L70.1035 15.8173L70.2549 17.0023ZM77.8508 6.34071C77.1932 6.44896 76.2406 6.80137 75.4537 7.52116C74.6478 8.25864 74.0288 9.37298 74.0824 10.9341L75.2652 10.8925C75.2242 9.71344 75.6768 8.9292 76.2477 8.40681C76.8383 7.86664 77.5693 7.59772 78.0416 7.52013L77.8508 6.34071ZM74.0824 10.9341C74.1447 12.7315 74.6021 14.0759 75.3181 14.9687C76.0435 15.8723 77.0158 16.2847 77.992 16.2089L77.9005 15.0175C77.3391 15.0611 76.7343 14.8363 76.2375 14.2164C75.7313 13.5857 75.3212 12.5205 75.2652 10.8925L74.0824 10.9341ZM77.992 16.2089C78.8601 16.1413 79.9404 15.8031 80.7534 14.9463C81.5845 14.0707 82.0584 12.7366 81.8455 10.8459L80.6706 10.9808C80.852 12.5951 80.4388 13.5511 79.8994 14.1193C79.3427 14.7063 78.57 14.9655 77.9005 15.0175L77.992 16.2089ZM81.8455 10.8459C81.7462 9.95895 81.6287 9.23421 81.4647 8.65C81.3014 8.06587 81.0822 7.58194 80.7526 7.20962C80.069 6.43526 79.0825 6.33298 77.9462 6.33298V7.52786C79.0967 7.52786 79.569 7.66455 79.871 8.00541C80.0343 8.19069 80.1896 8.48344 80.3268 8.97469C80.464 9.46586 80.5728 10.1152 80.6706 10.9808L81.8455 10.8459ZM85.2812 3.90356L85.8726 12.8054L87.0522 12.7254L86.4608 3.82358L85.2812 3.90356ZM85.871 15.0556V15.5733H87.0538V15.0556H85.871ZM106.806 12.5463V12.626H107.989V12.5463H106.806ZM81.6918 51.0213V51.1009H82.8746V51.0213H81.6918ZM106.806 15.2945V15.3742H107.989V15.2945H106.806ZM81.6918 53.7695V53.8492H82.8746V53.7695H81.6918ZM104.323 12.7585C104.413 13.1443 104.294 13.4453 103.995 13.7801C103.839 13.9544 103.646 14.1231 103.425 14.3017C103.221 14.4678 102.962 14.6653 102.751 14.8476L103.521 15.7554C103.715 15.5872 103.917 15.4351 104.166 15.2337C104.399 15.0448 104.652 14.8281 104.873 14.5806C105.328 14.0715 105.684 13.3827 105.474 12.4831L104.323 12.7585ZM102.751 14.8476C102.435 15.1216 102.13 15.4656 101.892 15.8005L102.851 16.4987C103.041 16.2321 103.283 15.9606 103.521 15.7554L102.751 14.8476ZM101.892 15.8005C101.88 15.8163 101.842 15.868 101.82 15.9023C101.806 15.9225 101.784 15.9575 101.762 16.0005C101.746 16.0338 101.702 16.128 101.694 16.2549C101.684 16.4168 101.739 16.6286 101.926 16.7763C102.071 16.8903 102.221 16.905 102.275 16.9085C102.39 16.9161 102.499 16.8916 102.548 16.8803L102.288 15.7147C102.238 15.7263 102.279 15.7114 102.351 15.7161C102.384 15.7182 102.52 15.7284 102.655 15.8351C102.832 15.9755 102.884 16.177 102.875 16.3257C102.868 16.4396 102.828 16.5179 102.821 16.5327C102.809 16.5571 102.8 16.5711 102.802 16.5676C102.81 16.5546 102.816 16.5489 102.851 16.4987L101.892 15.8005ZM102.548 16.8803C103.373 16.6921 104.233 16.6747 105.151 16.6747V15.4798C104.237 15.4798 103.256 15.494 102.288 15.7147L102.548 16.8803ZM103.353 13.0839C103.354 13.0761 103.356 13.071 103.368 13.0598C103.383 13.0441 103.417 13.0203 103.475 12.9948C103.603 12.939 103.739 12.92 103.875 12.8953L103.666 11.7193C103.589 11.7333 103.291 11.774 103.008 11.897C102.719 12.0224 102.329 12.2831 102.204 12.7987L103.353 13.0839ZM103.875 12.8953C103.902 12.8905 103.967 12.8829 104.054 12.8814C104.14 12.8799 104.23 12.8846 104.308 12.8969C104.346 12.903 104.377 12.9102 104.4 12.9174C104.424 12.9247 104.434 12.93 104.433 12.9295C104.431 12.9288 104.351 12.8805 104.323 12.7585L105.474 12.4831C105.401 12.175 105.191 11.9884 105.01 11.8867C104.836 11.7879 104.645 11.7409 104.491 11.7164C104.183 11.6677 103.857 11.6847 103.666 11.7193L103.875 12.8953ZM111.814 13.7179C111.814 14.1448 111.702 14.4926 111.548 14.7159C111.4 14.9295 111.229 15.0157 111.047 15.0157V16.2106C111.684 16.2106 112.191 15.8726 112.518 15.4002C112.838 14.9375 112.996 14.3377 112.996 13.7179H111.814ZM111.047 15.0157C110.679 15.0157 110.158 14.574 110.158 13.7179H108.975C108.975 14.9552 109.78 16.2106 111.047 16.2106V15.0157ZM110.158 13.7179C110.158 12.9198 110.631 12.5463 111.047 12.5463V11.3515C109.828 11.3515 108.975 12.4223 108.975 13.7179H110.158ZM111.047 12.5463C111.266 12.5463 111.434 12.635 111.564 12.8051C111.703 12.988 111.814 13.2922 111.814 13.7179H112.996C112.996 13.0968 112.837 12.5165 112.502 12.0765C112.157 11.6239 111.647 11.3515 111.047 11.3515V12.5463ZM116.466 13.7179C116.466 14.1448 116.355 14.4926 116.2 14.7159C116.053 14.9295 115.882 15.0157 115.7 15.0157V16.2106C116.336 16.2106 116.844 15.8726 117.17 15.4002C117.49 14.9375 117.649 14.3377 117.649 13.7179H116.466ZM115.7 15.0157C115.331 15.0157 114.81 14.574 114.81 13.7179H113.627C113.627 14.9552 114.432 16.2106 115.7 16.2106V15.0157ZM114.81 13.7179C114.81 12.9198 115.283 12.5463 115.7 12.5463V11.3515C114.48 11.3515 113.627 12.4223 113.627 13.7179H114.81ZM115.7 12.5463C115.918 12.5463 116.087 12.635 116.217 12.8051C116.356 12.988 116.466 13.2922 116.466 13.7179H117.649C117.649 13.0968 117.489 12.5165 117.154 12.0765C116.809 11.6239 116.3 11.3515 115.7 11.3515V12.5463ZM116.742 3.86222C117.184 3.89201 117.553 3.69637 117.828 3.45891C118.1 3.22336 118.324 2.91158 118.504 2.60139C118.865 1.97926 119.119 1.24074 119.246 0.748377L118.101 0.44679C117.993 0.870492 117.773 1.49812 117.483 1.99718C117.338 2.24755 117.192 2.43514 117.059 2.5508C116.927 2.66464 116.852 2.67212 116.821 2.67005L116.742 3.86222ZM114.361 1.04447C114.452 1.35824 114.607 1.77868 114.82 2.19417C115.029 2.60306 115.315 3.04899 115.679 3.37583L116.464 2.48198C116.255 2.29423 116.05 1.99415 115.871 1.64565C115.696 1.30368 115.568 0.955171 115.496 0.708309L114.361 1.04447ZM115.679 3.37583C115.954 3.62213 116.311 3.83322 116.742 3.86222L116.821 2.67005C116.737 2.6644 116.618 2.62011 116.464 2.48198L115.679 3.37583ZM115.623 2.53989C115.463 2.72812 115.194 3.00884 114.92 3.22846C114.783 3.33871 114.661 3.4202 114.563 3.46871C114.452 3.52415 114.439 3.50304 114.494 3.51037L114.338 4.69473C114.629 4.73392 114.898 4.63427 115.085 4.54083C115.287 4.44062 115.483 4.30305 115.656 4.16412C116.003 3.88548 116.326 3.54741 116.52 3.31791L115.623 2.53989ZM114.494 3.51037C114.576 3.52144 114.596 3.55139 114.527 3.50447C114.475 3.46855 114.401 3.40825 114.305 3.31919C114.115 3.14203 113.884 2.8919 113.636 2.60242C113.142 2.02602 112.62 1.33904 112.291 0.88308L111.336 1.58662C111.677 2.05995 112.22 2.77496 112.742 3.38419C113.001 3.68745 113.265 3.97605 113.503 4.19742C113.621 4.30751 113.744 4.41138 113.864 4.49383C113.969 4.5652 114.137 4.66773 114.338 4.69473L114.494 3.51037ZM77.2949 50.9886C77.6482 50.9886 77.9999 50.9767 78.3397 50.9647C78.6835 50.9528 79.0155 50.9416 79.3467 50.9416V49.7468C78.9918 49.7468 78.6401 49.7587 78.3003 49.7707C77.9565 49.7826 77.6253 49.7938 77.2949 49.7938V50.9886ZM79.3467 50.9416C79.446 50.9416 79.5209 50.9408 79.5911 50.9464C79.6644 50.9512 79.685 50.96 79.6755 50.956C79.6581 50.9488 79.5611 50.9026 79.5091 50.7751C79.4618 50.6588 79.4996 50.5911 79.4807 50.6453L80.5989 51.0348C80.6675 50.8341 80.7069 50.5768 80.6028 50.3203C80.4932 50.0518 80.2795 49.9132 80.1123 49.8455C79.953 49.7818 79.7898 49.7619 79.6723 49.7539C79.5517 49.746 79.4279 49.7468 79.3467 49.7468V50.9416ZM79.4807 50.6453C79.4208 50.8205 79.2678 51.0532 79.0391 51.2794C78.8128 51.5032 78.5629 51.6721 78.3657 51.7526L78.8073 52.8614C79.1827 52.7084 79.5596 52.4376 79.8671 52.1325C80.1723 51.8298 80.4585 51.4459 80.5989 51.0348L79.4807 50.6453ZM78.3657 51.7526C78.141 51.8442 77.9731 51.8935 77.8311 51.8967L77.8532 53.0916C78.2246 53.0844 78.5621 52.961 78.8073 52.8614L78.3657 51.7526ZM77.8311 51.8967C77.8303 51.8967 77.8295 51.8967 77.8295 51.8967C77.8288 51.8967 77.8288 51.8967 77.8288 51.8967C77.8295 51.8967 77.8295 51.8967 77.8303 51.8967L77.8524 53.0916C77.8532 53.0916 77.854 53.0908 77.854 53.0908C77.8548 53.0908 77.8548 53.0908 77.8548 53.0908C77.854 53.0908 77.854 53.0908 77.8532 53.0916L77.8311 51.8967ZM77.8303 51.8967C77.7948 51.8975 77.768 51.8975 77.7507 51.8975C77.7113 51.8975 77.7365 51.8967 77.768 51.8991C77.7688 51.8999 77.8004 51.9015 77.8382 51.9095C77.85 51.9119 77.8713 51.9166 77.8973 51.9254C77.9147 51.931 77.977 51.9509 78.0464 51.9971C78.0842 52.0226 78.3484 52.2066 78.3066 52.5651C78.2703 52.871 78.0346 53.0008 78.018 53.0104C77.9596 53.0446 77.9092 53.0605 77.8926 53.0661C77.8697 53.0733 77.8508 53.0773 77.8398 53.0797C77.8185 53.0844 77.8019 53.0868 77.7948 53.0876C77.7791 53.0892 77.7672 53.09 77.7633 53.0908C77.7546 53.0916 77.7475 53.0916 77.7459 53.0916C77.7428 53.0916 77.7412 53.0916 77.7412 53.0916C77.7396 53.0916 77.742 53.0916 77.7507 53.0916C77.7657 53.0916 77.7925 53.0916 77.8319 53.0916V51.8967C77.7893 51.8967 77.7578 51.8967 77.7365 51.8967C77.7262 51.8967 77.716 51.8975 77.7065 51.8975C77.7057 51.8975 77.6915 51.8975 77.6758 51.8991C77.6718 51.8991 77.6592 51.8999 77.6434 51.9023C77.6363 51.9031 77.6198 51.9055 77.5985 51.9103C77.5875 51.9119 77.5685 51.9166 77.5457 51.9238C77.5291 51.9286 77.4786 51.9445 77.4203 51.9796C77.4037 51.9891 77.168 52.119 77.1317 52.4241C77.0899 52.7833 77.3548 52.9673 77.3919 52.9928C77.4613 53.039 77.5236 53.0589 77.5409 53.0645C77.567 53.0733 77.589 53.0781 77.6001 53.0805C77.6387 53.0884 77.6695 53.09 77.671 53.09C77.7065 53.0932 77.7554 53.0924 77.7578 53.0924C77.7814 53.0924 77.813 53.0916 77.8524 53.0916L77.8303 51.8967ZM77.8319 53.0916C77.8343 53.0916 77.8366 53.0916 77.839 53.0916L77.8437 51.8967C77.8398 51.8967 77.8358 51.8967 77.8319 51.8967V53.0916ZM77.839 53.0916C78.3902 53.0932 78.8057 53.3035 79.1038 53.7329L80.0721 53.0462C79.5367 52.2751 78.7474 51.8999 77.8437 51.8967L77.839 53.0916ZM79.1038 53.7329C79.2126 53.889 79.2323 53.9806 79.2347 54.0133C79.2371 54.0316 79.2347 54.0332 79.2284 54.0419C79.189 54.0953 79.0218 54.2148 78.6496 54.2658C78.305 54.3128 77.8958 54.2833 77.5315 54.1718C77.1593 54.0579 76.9038 53.8826 76.7768 53.697L75.8038 54.3749C76.1366 54.864 76.6712 55.1572 77.1893 55.3157C77.7144 55.4758 78.2948 55.5196 78.8073 55.4503C79.2931 55.3842 79.8521 55.1954 80.1762 54.7573C80.3513 54.5199 80.4404 54.2299 80.4136 53.9121C80.3883 53.607 80.2598 53.3162 80.0721 53.0462L79.1038 53.7329ZM84.4193 49.8862C84.4193 50.1203 84.4075 50.2908 84.3625 50.4621L85.5059 50.768C85.5903 50.4477 85.6021 50.1562 85.6021 49.8862H84.4193ZM84.3625 50.4621C84.3294 50.5871 84.2821 50.7066 84.2166 50.8803C84.1567 51.0396 84.0826 51.2427 84.0424 51.4682L85.2055 51.6825C85.2252 51.5741 85.2638 51.461 85.3222 51.3057C85.375 51.1647 85.453 50.9703 85.5059 50.768L84.3625 50.4621ZM84.0424 51.4682C84.0432 51.4618 84.0432 51.4634 84.0321 51.5048C84.0242 51.5351 84.0108 51.5869 83.999 51.6418C83.9887 51.696 83.9753 51.7757 83.9761 51.8657C83.9761 51.9517 83.9887 52.0959 84.0723 52.2432L85.099 51.6506C85.129 51.7024 85.1432 51.7502 85.1503 51.7844C85.1573 51.8187 85.1589 51.845 85.1589 51.8593C85.1589 51.8744 85.1573 51.884 85.1573 51.8856C85.1573 51.888 85.1573 51.8864 85.1581 51.88C85.1613 51.8657 85.166 51.8473 85.1747 51.8139C85.1786 51.7995 85.1842 51.7788 85.1889 51.7597C85.1936 51.7406 85.1999 51.7127 85.2055 51.6825L84.0424 51.4682ZM84.0723 52.2432C84.1945 52.4599 84.3956 52.5292 84.465 52.5507C84.5549 52.5778 84.6393 52.585 84.6953 52.5874C84.812 52.5922 84.9358 52.5818 85.0328 52.5706C85.1345 52.5587 85.2338 52.5436 85.3087 52.5308C85.4065 52.5149 85.4223 52.5125 85.4152 52.5133L85.3135 51.3224C85.2772 51.3256 85.2346 51.3327 85.2149 51.3359C85.1905 51.3399 85.1503 51.3463 85.1203 51.3519C85.0501 51.363 84.9728 51.375 84.8987 51.3837C84.8191 51.3925 84.7694 51.3941 84.7481 51.3933C84.7347 51.3933 84.7591 51.3925 84.8025 51.4052C84.8254 51.4124 84.8688 51.4275 84.9192 51.4594C84.9713 51.4921 85.0438 51.5518 85.099 51.6506L84.0723 52.2432ZM85.4152 52.5133C85.7653 52.4822 86.2093 52.4567 86.6217 52.3731L86.3898 51.2021C86.0618 51.2682 85.7148 51.2873 85.3135 51.3224L85.4152 52.5133ZM86.6217 52.3731C86.6563 52.3667 86.5917 52.3858 86.4931 52.3667C86.4324 52.3548 86.3386 52.3245 86.2479 52.2472C86.1541 52.166 86.1028 52.068 86.0784 51.9851C86.0563 51.9111 86.0563 51.8521 86.0571 51.8298C86.0571 51.8043 86.0602 51.79 86.0594 51.7932C86.0555 51.8163 86.0547 51.8147 86.0413 51.8888L87.2044 52.1062C87.2067 52.0935 87.2217 52.017 87.228 51.978C87.232 51.9501 87.2588 51.8027 87.2107 51.641C87.1815 51.5407 87.1216 51.4283 87.0143 51.3367C86.911 51.2483 86.8006 51.2101 86.7178 51.1934C86.5751 51.1655 86.4458 51.1902 86.3898 51.2021L86.6217 52.3731ZM86.0413 51.8888C85.9246 52.5252 85.9112 53.2477 86.0176 53.893L87.1847 53.6962C87.1019 53.196 87.1113 52.6137 87.2044 52.1062L86.0413 51.8888ZM90.5399 52.068C90.4886 52.064 90.502 52.0337 90.5753 52.1277C90.6471 52.2193 90.7118 52.3476 90.7812 52.4982L91.8536 51.9931C91.785 51.8457 91.6706 51.6012 91.505 51.3885C91.341 51.1782 91.0579 50.9106 90.6337 50.8763L90.5399 52.068ZM90.7812 52.4982C90.9562 52.8781 91.013 53.2023 90.9404 53.4039L92.0523 53.8125C92.2959 53.1346 92.0515 52.4233 91.8536 51.9931L90.7812 52.4982ZM90.9404 53.4039C90.9184 53.4644 90.8868 53.505 90.7725 53.5441C90.629 53.5935 90.4373 53.6086 90.1779 53.6181L90.2173 54.8122C90.4626 54.8035 90.8214 54.7891 91.1518 54.676C91.5113 54.5525 91.8772 54.2984 92.0523 53.8125L90.9404 53.4039ZM90.1779 53.6181C89.8688 53.6285 89.5526 53.607 89.2388 53.56L89.0653 54.7421C89.4414 54.7987 89.8294 54.825 90.2173 54.8122L90.1779 53.6181ZM89.2388 53.56C89.2017 53.5552 89.1623 53.5504 89.1394 53.548C89.1118 53.5449 89.0961 53.5425 89.0826 53.5401C89.07 53.5385 89.0693 53.5377 89.0756 53.5393C89.0819 53.5409 89.1032 53.548 89.1323 53.5656L88.5236 54.5908C88.6647 54.676 88.8083 54.7055 88.8887 54.719C88.932 54.7262 88.9738 54.731 89.0022 54.735C89.0361 54.7389 89.0519 54.7405 89.0653 54.7421L89.2388 53.56ZM88.7759 51.884C88.8429 52.0329 88.9502 52.1126 89.0077 52.1477C89.0685 52.1851 89.1221 52.2026 89.1505 52.2114C89.2072 52.2281 89.2538 52.2321 89.2703 52.2337C89.3098 52.2369 89.3421 52.2353 89.3531 52.2345C89.3823 52.2337 89.4099 52.2305 89.4288 52.2289C89.4706 52.2241 89.5234 52.217 89.5786 52.209C89.6906 52.1931 89.8396 52.17 89.9863 52.1485C90.1361 52.1254 90.2852 52.1038 90.4042 52.0879C90.4642 52.0807 90.5115 52.0752 90.5462 52.072C90.5974 52.0664 90.5809 52.0712 90.5399 52.068L90.6337 50.8763C90.5572 50.8707 90.4736 50.8787 90.4358 50.8819C90.3814 50.8867 90.3183 50.8946 90.2528 50.9034C90.1211 50.9201 89.9619 50.944 89.8128 50.9663C89.6599 50.9894 89.5195 51.0109 89.4138 51.0261C89.3602 51.0332 89.3232 51.038 89.3011 51.0404C89.2885 51.042 89.2916 51.0412 89.3027 51.0412C89.3058 51.0412 89.331 51.0396 89.3657 51.042C89.3799 51.0436 89.4249 51.0476 89.4801 51.0635C89.5077 51.0723 89.5613 51.0898 89.6212 51.1264C89.678 51.1615 89.7852 51.2403 89.8523 51.3893L88.7759 51.884ZM88.7223 49.9459C88.7223 50.0048 88.716 50.1084 88.7042 50.2653C88.6931 50.4119 88.6789 50.5903 88.6695 50.7688C88.66 50.9456 88.6537 51.1376 88.6624 51.3136C88.6695 51.469 88.6892 51.692 88.7759 51.884L89.8523 51.3893C89.8665 51.4204 89.8499 51.3949 89.8436 51.2579C89.8381 51.1408 89.8412 50.995 89.8499 50.8325C89.8586 50.6716 89.872 50.5099 89.883 50.3569C89.8941 50.2144 89.9051 50.0606 89.9051 49.9459H88.7223ZM89.3594 50.5417L91.9387 50.3426L91.8488 49.1509L89.2687 49.3501L89.3594 50.5417ZM28.6248 43.8504L29.0585 50.7122L30.239 50.6365L29.8053 43.774L28.6248 43.8504ZM29.0585 50.7122L29.4922 57.5748L30.6727 57.4983L30.239 50.6365L29.0585 50.7122ZM29.6545 51.2714L35.6868 51.2125L35.6752 50.0176L29.643 50.0765L29.6545 51.2714ZM36.2724 50.615V43.8122H35.0896V50.615H36.2724ZM35.0896 50.615V56.9558H36.2724V50.615H35.0896ZM40.1362 56.8762H44.7491V55.6813H40.1362V56.8762ZM40.1362 48.1138H44.0789V46.9189H40.1362V48.1138ZM39.5448 47.5163V51.8975H40.7276V47.5163H39.5448ZM39.5448 51.8975V56.2787H40.7276V51.8975H39.5448ZM40.1362 52.495H44.0789V51.3001H40.1362V52.495ZM47.2411 47.4175C47.1352 48.0564 47.0678 49.0513 47.218 49.9817C47.3621 50.8739 47.7471 51.935 48.7466 52.342L49.1888 51.2332C48.8006 51.0755 48.5154 50.5943 48.3854 49.7898C48.2616 49.0227 48.3164 48.1647 48.4076 47.6151L47.2411 47.4175ZM48.7466 52.342C49.2373 52.5412 49.7153 52.4488 50.115 52.2273C50.4984 52.0146 50.8351 51.6737 51.1226 51.3049C51.7005 50.5641 52.1958 49.5596 52.5484 48.7008L51.4558 48.2436C51.1193 49.0633 50.673 49.9507 50.1937 50.5656C49.9525 50.8747 49.7318 51.0763 49.5461 51.1798C49.3767 51.273 49.2737 51.2682 49.1888 51.2332L48.7466 52.342ZM52.5484 48.7008C52.6952 48.3432 52.8204 48.003 52.919 47.7067L51.7979 47.3259C51.708 47.596 51.5924 47.9106 51.4558 48.2436L52.5484 48.7008ZM51.4195 48.575C51.6833 50.1004 51.8083 52.2632 51.3855 53.8571C51.1743 54.6529 50.8485 55.2241 50.4202 55.5395C50.0198 55.8342 49.4298 55.9776 48.5022 55.7052L48.1716 56.8523C49.3573 57.2012 50.3495 57.0697 51.1168 56.505C51.8562 55.9601 52.2837 55.087 52.528 54.1662C53.0159 52.3261 52.8602 49.9634 52.5847 48.3695L51.4195 48.575ZM57.1297 43.5613L57.5634 53.0406L58.7449 52.9849L58.3112 43.5055L57.1297 43.5613ZM57.5627 54.9245V55.6016H58.7455V54.9245H57.5627ZM91.5515 42.8151C91.9931 42.8449 92.3614 42.6493 92.6366 42.4118C92.9094 42.1763 93.1333 41.8645 93.3131 41.5543C93.6743 40.9322 93.9282 40.1937 94.0551 39.7013L92.911 39.3997C92.8014 39.8234 92.5821 40.451 92.2928 40.9501C92.1477 41.2005 92.0018 41.3881 91.8677 41.5037C91.7361 41.6175 91.6611 41.625 91.6296 41.623L91.5515 42.8151ZM89.1702 39.9974C89.2609 40.3111 89.417 40.7316 89.6291 41.1471C89.8389 41.556 90.1235 42.0019 90.4886 42.3287L91.2732 41.4349C91.0634 41.2471 90.8584 40.9471 90.6802 40.5986C90.5052 40.2566 90.3766 39.9081 90.3049 39.6612L89.1702 39.9974ZM90.4886 42.3287C90.763 42.575 91.1202 42.7861 91.5515 42.8151L91.6296 41.623C91.546 41.6173 91.4277 41.573 91.2732 41.4349L90.4886 42.3287Z" fill="white"/>
</svg>
