<?xml version="1.0" encoding="utf-8"?><svg viewBox="0 0 104 66" xmlns="http://www.w3.org/2000/svg" xmlns:xlink="http://www.w3.org/1999/xlink"><style>:root>svg{display:none}:root>svg:target{display:block}</style><svg fill="#474739" viewBox="0 0 24 24" id="community" xmlns="http://www.w3.org/2000/svg"><path d="M8.2 13.2c-.1-.4-.2-.8-.2-1.2 0-.4.1-.8.2-1.2m0 2.4l-3.7 3.7C3.5 15.5 3 13.8 3 12c0-1.8.5-3.5 1.5-4.9l3.7 3.7m0 2.4L3 18.4 5.6 21l5.2-5.2m-2.6-2.6c.4 1.3 1.3 2.2 2.6 2.6m-2.6-2.6c.4 1.2 1.4 2.2 2.6 2.6m-2.6-5L3 5.6 5.6 3l5.2 5.2m-2.6 2.6c.4-1.2 1.3-2.2 2.6-2.6m-2.6 2.6c.4-1.2 1.4-2.2 2.6-2.6m0 0L7.1 4.5C8.5 3.5 10.2 3 12 3c1.8 0 3.5.5 4.9 1.5m-6.1 3.7c.4-.1.8-.2 1.2-.2.4 0 .8.1 1.2.2m3.7-3.7l-3.7 3.7m3.7-3.7L18.4 3 21 5.6l-5.2 5.2m-2.6-2.6c1.2.4 2.2 1.4 2.6 2.6m-2.6-2.6c1.2.4 2.2 1.3 2.6 2.6m0 0l3.7-3.7c1 1.4 1.5 3.1 1.5 4.9 0 1.8-.5 3.5-1.5 4.9l-3.7-3.7m0-2.4c.1.4.2.8.2 1.2 0 .4-.1.8-.2 1.2m0 0c-.4 1.2-1.4 2.2-2.6 2.6m2.6-2.6c-.4 1.2-1.3 2.2-2.6 2.6m2.6-2.6l5.2 5.2-2.6 2.6-1.5-1.5m-3.7-3.7l3.7 3.7m-3.7-3.7c-.4.1-.8.2-1.2.2-.4 0-.8-.1-1.2-.2m6.1 3.7c-1.4 1-3.1 1.5-4.9 1.5-1.8 0-3.5-.5-4.9-1.5l3.7-3.7" stroke="#474739" stroke-width="1.5" stroke-linecap="round" stroke-linejoin="round"/></svg><svg fill="#474739" viewBox="0 0 64 66" id="favicon" xmlns="http://www.w3.org/2000/svg"><path d="M57.367 10.775L38.633 21.553V0H25.367v21.553L6.633 10.775 0 22.224l18.731 10.774L0 43.773l6.633 11.449 18.734-10.775V66h13.266V44.447l18.734 10.775L64 43.773 45.269 32.998 64 22.224l-6.633-11.45z"/></svg><svg fill="#474739" viewBox="0 0 104 18" id="logo" xmlns="http://www.w3.org/2000/svg"><path d="M12.444 0H1.778C.8 0 0 .81 0 1.8v14.4c0 .99.8 1.8 1.778 1.8h10.666c.978 0 1.778-.81 1.778-1.8V1.8c0-.99-.8-1.8-1.778-1.8zM1.778 1.8h4.444V9L4 7.65 1.778 9V1.8zM22.222 15.8v-14h1.842v14h-1.842zM26.546 15.8V5.64h1.724v1.42c.796-1.213 1.933-1.82 3.408-1.82 2.182 0 3.272 1.267 3.272 3.8v6.76h-1.724V9.58c0-.387-.006-.64-.02-.76 0-.173-.039-.433-.117-.78-.078-.48-.274-.847-.588-1.1-.3-.253-.757-.407-1.371-.46-.614 0-1.202.207-1.763.62-.732.547-1.098 1.6-1.098 3.16v5.54h-1.723zM37.188 15.8V5.64h1.724v1.42c.797-1.213 1.933-1.82 3.41-1.82 2.18 0 3.271 1.267 3.271 3.8v6.76h-1.724V9.58c0-.387-.007-.64-.02-.76 0-.173-.039-.433-.117-.78-.078-.48-.274-.847-.588-1.1-.3-.253-.757-.407-1.371-.46-.614 0-1.202.207-1.764.62-.73.547-1.097 1.6-1.097 3.16v5.54h-1.724zM47.518 12.72c-.34-1.427-.327-2.807.039-4.14.366-1.333 1.136-2.287 2.312-2.86.653-.32 1.417-.48 2.292-.48.875 0 1.639.16 2.292.48 1.175.56 1.953 1.56 2.331 3 .17.667.255 1.34.255 2.02a7.268 7.268 0 01-.235 1.98 4.752 4.752 0 01-.842 1.76 4.131 4.131 0 01-1.509 1.26c-.666.307-1.43.46-2.292.46-.862 0-1.626-.153-2.292-.46-1.137-.56-1.92-1.567-2.351-3.02zM49.34 8.7c-.17.533-.255 1.2-.255 2 0 .787.085 1.46.255 2.02.17.56.365.98.587 1.26.47.533 1.006.847 1.607.94.418.067.836.067 1.254 0 .183-.013.437-.107.764-.28.352-.187.64-.42.862-.7.222-.28.411-.687.568-1.22.17-.56.255-1.233.255-2.02 0-.8-.085-1.467-.255-2-.183-.587-.385-1.007-.607-1.26a2.688 2.688 0 00-.784-.64c-.313-.173-.581-.28-.803-.32a3.955 3.955 0 00-1.254 0c-.183.013-.444.113-.784.3-.666.333-1.136.973-1.41 1.92zM59.095 5.64l2.821 8.4 2.821-8.4h1.861L62.915 15.8h-1.998L57.234 5.64h1.861zM68.65 8.64h-1.646c0-.8.262-1.533.784-2.2.627-.8 1.776-1.2 3.448-1.2.98 0 1.842.2 2.586.6.431.213.77.567 1.019 1.06.248.493.366 1.08.353 1.76l-.098 4.7c0 .387.039.687.117.9.118.213.425.313.921.3v1.24a3.09 3.09 0 01-.784.08c-.574 0-.992-.1-1.253-.3-.249-.2-.425-.593-.53-1.18-.64 1.2-1.776 1.8-3.408 1.8-1.124 0-1.992-.253-2.606-.76-.6-.52-.901-1.287-.901-2.3 0-.96.34-1.687 1.019-2.18.679-.52 1.965-.867 3.86-1.04.874-.067 1.397-.153 1.566-.26.249-.173.373-.553.373-1.14 0-1.36-.745-2.04-2.234-2.04-1.763 0-2.625.72-2.586 2.16zm4.78 2.82l.04-.86c-.196.147-.484.267-.862.36-.575.04-1.02.087-1.333.14-1.084.187-1.743.34-1.978.46-.575.28-.862.787-.862 1.52 0 .587.17 1.047.509 1.38.353.333.823.5 1.41.5.38 0 .725-.053 1.039-.16.326-.107.64-.28.94-.52.314-.253.562-.62.745-1.1.196-.48.313-1.053.352-1.72zM76.423 6.88V5.64h1.783V2.6h1.724v3.04h2.115v1.24H79.93v6.56c-.014.467.032.793.137.98.117.173.418.28.9.32.301 0 .66-.06 1.078-.18v1.24c-.627.267-1.227.4-1.802.4-.757 0-1.293-.187-1.606-.56-.118-.12-.222-.327-.314-.62-.078-.307-.117-.747-.117-1.32V6.88h-1.783zM90.437 12.86h1.645c-.156.893-.58 1.673-1.273 2.34-.692.667-1.718 1-3.076 1-1.842 0-3.193-.62-4.055-1.86a5.5 5.5 0 01-.843-2.1 8.561 8.561 0 01-.137-1.48c0-.893.13-1.733.392-2.52.17-.56.418-1.047.744-1.46.353-.44.856-.807 1.509-1.1.653-.293 1.39-.44 2.214-.44 1.463 0 2.566.413 3.31 1.24.314.347.569.787.765 1.32.287.773.463 1.713.529 2.82v.26c.013.133.02.213.02.24h-7.66c0 1.013.26 1.907.783 2.68.522.773 1.312 1.16 2.37 1.16.758 0 1.378-.193 1.861-.58.484-.387.784-.893.902-1.52zM84.52 9.88h5.838a4.764 4.764 0 00-.548-2.18c-.405-.813-1.143-1.22-2.214-1.22-1.215 0-2.05.413-2.508 1.24a4.3 4.3 0 00-.568 2.16z"/><path d="M94.596 1.8l3.429 5.5 3.428-5.5h2.292L99.2 8.64l4.8 7.16h-2.371l-3.604-5.82-3.605 5.82h-2.37l4.8-7.16-4.546-6.84h2.292z"/></svg><svg fill="#474739" viewBox="0 0 35 35" id="personal" xmlns="http://www.w3.org/2000/svg"><path d="M4.849 4.907l25.485.017M4.837 22.18l25.486.018" stroke="#474739" stroke-width="2.124" stroke-miterlimit="10" stroke-linecap="round" stroke-linejoin="round"/><path d="M17.578 25.021l.002-2.832" stroke="#474739" stroke-width="2.124" stroke-miterlimit="10" stroke-linecap="square" stroke-linejoin="round"/><path d="M7.669 22.183L7.68 4.909M27.49 22.196l.013-17.273M17.574 30.402a2.124 2.124 0 10.003-4.248 2.124 2.124 0 00-.003 4.248z" stroke="#474739" stroke-width="2.124" stroke-miterlimit="10" stroke-linecap="round" stroke-linejoin="round"/><path d="M21.836 9.45l-5.667 5.66-2.83-2.835" stroke="#474739" stroke-width="2.124" stroke-linecap="round" stroke-linejoin="round"/></svg><svg fill="#474739" viewBox="0 0 34 34" id="professional" xmlns="http://www.w3.org/2000/svg"><g clip-path="url(#eclip0_7_25)" stroke="#474739" stroke-width="1.742" stroke-linecap="round" stroke-linejoin="round"><path d="M15.18 11.88a4.627 4.627 0 00-3.61 5.491 4.627 4.627 0 00-5.49-3.61 4.627 4.627 0 003.61-5.49 4.627 4.627 0 005.49 3.61zM26.086 7.256A2.313 2.313 0 0024.281 10a2.314 2.314 0 00-2.745-1.805 2.314 2.314 0 001.805-2.746 2.313 2.313 0 002.745 1.806zM28.436 18.631a6.94 6.94 0 00-5.415 8.236 6.94 6.94 0 00-8.236-5.416 6.94 6.94 0 005.416-8.235 6.94 6.94 0 008.235 5.415z"/></g><defs><clipPath id="eclip0_7_25"><path transform="rotate(-11.672 31.786 -1.092)" d="M0 0h27.878v27.878H0z"/></clipPath></defs></svg><svg fill="#474739" viewBox="0 0 24 24" id="smile" xmlns="http://www.w3.org/2000/svg"><path d="M9 11a1 1 0 100-2 1 1 0 000 2z" stroke="#474739" stroke-width="1.5" stroke-linecap="round" stroke-linejoin="round"/><path d="M12 21c-5 0-9-4-9-9s4-9 9-9 9 4 9 9-4 9-9 9z" stroke="#474739" stroke-width="1.5" stroke-linecap="round" stroke-linejoin="round"/><path d="M15 11a1 1 0 100-2 1 1 0 000 2z" stroke="#474739" stroke-width="1.5" stroke-linecap="round" stroke-linejoin="round"/></svg><svg fill="#474739" viewBox="0 0 26 26" id="technologies" xmlns="http://www.w3.org/2000/svg"><path d="M11.214 22.347l-1.028-.017a4.123 4.123 0 01-4.045-4.176l.115-7.194 4.11.065a2.062 2.062 0 002.089-2.022l.082-5.139 4.11.066a4.124 4.124 0 014.046 4.176l-.033 2.056M6.256 10.96c.01-.664.254-1.304.687-1.807l3.896-4.526a2.195 2.195 0 011.698-.763" stroke="#474739" stroke-width="1.542" stroke-linecap="round" stroke-linejoin="round"/><path d="M18.408 22.462a4.112 4.112 0 10.131-8.222 4.112 4.112 0 00-.13 8.222z" stroke="#474739" stroke-width="1.542" stroke-miterlimit="10" stroke-linecap="round" stroke-linejoin="round"/><path d="M18.54 14.24l-.132 8.222M14.363 18.285l8.222.131" stroke="#474739" stroke-width="1.542" stroke-linecap="round"/></svg></svg>