<svg width="104" height="18" viewBox="0 0 104 18" fill="none" xmlns="http://www.w3.org/2000/svg">
<path d="M12.4444 0H1.77778C0.8 0 0 0.81 0 1.8V16.2C0 17.19 0.8 18 1.77778 18H12.4444C13.4222 18 14.2222 17.19 14.2222 16.2V1.8C14.2222 0.81 13.4222 0 12.4444 0ZM1.77778 1.8H6.22222V9L4 7.65L1.77778 9V1.8Z" fill="#00827A"/>
<path d="M22.2222 15.8V1.8H24.0638V15.8H22.2222Z" fill="#00827A"/>
<path d="M26.5455 15.8V5.64H28.2695V7.06C29.0662 5.84667 30.2025 5.24 31.6784 5.24C33.8596 5.24 34.9502 6.50667 34.9502 9.04V15.8H33.2261V9.58C33.2261 9.19333 33.2196 8.94 33.2065 8.82C33.2065 8.64667 33.1674 8.38667 33.089 8.04C33.0106 7.56 32.8147 7.19333 32.5012 6.94C32.2008 6.68667 31.7437 6.53333 31.1299 6.48C30.516 6.48 29.9283 6.68667 29.3666 7.1C28.6352 7.64667 28.2695 8.7 28.2695 10.26V15.8H26.5455Z" fill="#00827A"/>
<path d="M37.1883 15.8V5.64H38.9124V7.06C39.7091 5.84667 40.8454 5.24 42.3212 5.24C44.5024 5.24 45.593 6.50667 45.593 9.04V15.8H43.869V9.58C43.869 9.19333 43.8624 8.94 43.8494 8.82C43.8494 8.64667 43.8102 8.38667 43.7318 8.04C43.6535 7.56 43.4575 7.19333 43.1441 6.94C42.8437 6.68667 42.3866 6.53333 41.7727 6.48C41.1588 6.48 40.5711 6.68667 40.0095 7.1C39.2781 7.64667 38.9124 8.7 38.9124 10.26V15.8H37.1883Z" fill="#00827A"/>
<path d="M47.5177 12.72C47.1781 11.2933 47.1912 9.91333 47.5569 8.58C47.9226 7.24667 48.6932 6.29333 49.8687 5.72C50.5217 5.4 51.2858 5.24 52.1609 5.24C53.0359 5.24 53.8 5.4 54.453 5.72C55.6285 6.28 56.4056 7.28 56.7844 8.72C56.9542 9.38667 57.0391 10.06 57.0391 10.74C57.0522 11.4067 56.9738 12.0667 56.804 12.72C56.6473 13.36 56.3665 13.9467 55.9616 14.48C55.5697 15.0133 55.0669 15.4333 54.453 15.74C53.7869 16.0467 53.0229 16.2 52.1609 16.2C51.2988 16.2 50.5348 16.0467 49.8687 15.74C48.7324 15.18 47.9487 14.1733 47.5177 12.72ZM49.3397 8.7C49.1699 9.23333 49.085 9.9 49.085 10.7C49.085 11.4867 49.1699 12.16 49.3397 12.72C49.5095 13.28 49.7054 13.7 49.9274 13.98C50.3976 14.5133 50.9331 14.8267 51.5339 14.92C51.9519 14.9867 52.3698 14.9867 52.7878 14.92C52.9706 14.9067 53.2253 14.8133 53.5518 14.64C53.9045 14.4533 54.1918 14.22 54.4139 13.94C54.6359 13.66 54.8253 13.2533 54.982 12.72C55.1518 12.16 55.2367 11.4867 55.2367 10.7C55.2367 9.9 55.1518 9.23333 54.982 8.7C54.7992 8.11333 54.5967 7.69333 54.3747 7.44C54.1657 7.18667 53.9045 6.97333 53.591 6.8C53.2776 6.62667 53.0098 6.52 52.7878 6.48C52.3698 6.41333 51.9519 6.41333 51.5339 6.48C51.3511 6.49333 51.0899 6.59333 50.7503 6.78C50.0842 7.11333 49.614 7.75333 49.3397 8.7Z" fill="#00827A"/>
<path d="M59.095 5.64L61.9161 14.04L64.7373 5.64H66.5984L62.9153 15.8H60.917L57.2338 5.64H59.095Z" fill="#00827A"/>
<path d="M68.6502 8.64H67.0045C67.0045 7.84 67.2657 7.10667 67.7882 6.44C68.4151 5.64 69.5644 5.24 71.2362 5.24C72.2158 5.24 73.0778 5.44 73.8223 5.84C74.2533 6.05333 74.5929 6.40667 74.841 6.9C75.0892 7.39333 75.2067 7.98 75.1937 8.66L75.0957 13.36C75.0957 13.7467 75.1349 14.0467 75.2133 14.26C75.3308 14.4733 75.6377 14.5733 76.1341 14.56V15.8C75.9381 15.8533 75.6769 15.88 75.3504 15.88C74.7757 15.88 74.3578 15.78 74.0966 15.58C73.8484 15.38 73.6721 14.9867 73.5676 14.4C72.9276 15.6 71.7913 16.2 70.1587 16.2C69.0355 16.2 68.1669 15.9467 67.5531 15.44C66.9523 14.92 66.6519 14.1533 66.6519 13.14C66.6519 12.18 66.9914 11.4533 67.6706 10.96C68.3498 10.44 69.6363 10.0933 71.5301 9.92C72.4052 9.85333 72.9276 9.76667 73.0974 9.66C73.3456 9.48667 73.4696 9.10667 73.4696 8.52C73.4696 7.16 72.7252 6.48 71.2362 6.48C69.473 6.48 68.611 7.2 68.6502 8.64ZM73.4305 11.46L73.4696 10.6C73.2737 10.7467 72.9864 10.8667 72.6076 10.96C72.0329 11 71.5889 11.0467 71.2754 11.1C70.1914 11.2867 69.5318 11.44 69.2967 11.56C68.722 11.84 68.4347 12.3467 68.4347 13.08C68.4347 13.6667 68.6045 14.1267 68.944 14.46C69.2967 14.7933 69.7669 14.96 70.3546 14.96C70.7334 14.96 71.0795 14.9067 71.393 14.8C71.7195 14.6933 72.0329 14.52 72.3333 14.28C72.6468 14.0267 72.895 13.66 73.0778 13.18C73.2737 12.7 73.3913 12.1267 73.4305 11.46Z" fill="#00827A"/>
<path d="M76.4227 6.88V5.64H78.2056V2.6H79.9296V5.64H82.0454V6.88H79.9296V13.44C79.9165 13.9067 79.9622 14.2333 80.0667 14.42C80.1843 14.5933 80.4847 14.7 80.9679 14.74C81.2683 14.74 81.6275 14.68 82.0454 14.56V15.8C81.4185 16.0667 80.8177 16.2 80.243 16.2C79.4855 16.2 78.95 16.0133 78.6366 15.64C78.519 15.52 78.4145 15.3133 78.3231 15.02C78.2447 14.7133 78.2056 14.2733 78.2056 13.7V6.88H76.4227Z" fill="#00827A"/>
<path d="M90.4367 12.86H92.0823C91.9256 13.7533 91.5011 14.5333 90.8089 15.2C90.1167 15.8667 89.0914 16.2 87.7331 16.2C85.8915 16.2 84.5397 15.58 83.6777 14.34C83.2466 13.6867 82.9658 12.9867 82.8352 12.24C82.7438 11.72 82.6981 11.2267 82.6981 10.76C82.6981 9.86667 82.8287 9.02667 83.0899 8.24C83.2597 7.68 83.5079 7.19333 83.8344 6.78C84.187 6.34 84.6899 5.97333 85.3429 5.68C85.996 5.38667 86.7339 5.24 87.5567 5.24C89.0196 5.24 90.1232 5.65333 90.8677 6.48C91.1811 6.82667 91.4358 7.26667 91.6317 7.8C91.9191 8.57333 92.0954 9.51333 92.1607 10.62C92.1607 10.66 92.1607 10.7467 92.1607 10.88C92.1738 11.0133 92.1803 11.0933 92.1803 11.12H84.5201C84.5201 12.1333 84.7813 13.0267 85.3037 13.8C85.8262 14.5733 86.6164 14.96 87.6743 14.96C88.4318 14.96 89.0522 14.7667 89.5355 14.38C90.0187 13.9933 90.3191 13.4867 90.4367 12.86ZM84.5201 9.88H90.3583C90.3452 9.09333 90.1624 8.36667 89.8097 7.7C89.4049 6.88667 88.6669 6.48 87.5959 6.48C86.3813 6.48 85.5454 6.89333 85.0882 7.72C84.7095 8.38667 84.5201 9.10667 84.5201 9.88Z" fill="#00827A"/>
<path d="M94.5962 1.8L98.0246 7.3L101.453 1.8H103.745L99.2001 8.64L104 15.8H101.629L98.0246 9.98L94.4198 15.8H92.0493L96.8492 8.64L92.304 1.8H94.5962Z" fill="#00827A"/>
</svg>
