<svg width="34" height="34" viewBox="0 0 34 34" fill="none" xmlns="http://www.w3.org/2000/svg">
<g clip-path="url(#clip0_7_25)">
<path d="M15.1807 11.8808C12.6528 12.403 11.0482 14.8431 11.5704 17.3711C11.0482 14.8431 8.60811 13.2386 6.0802 13.7608C8.60811 13.2386 10.2127 10.7985 9.69045 8.27058C10.2127 10.7985 12.6528 12.403 15.1807 11.8808Z" stroke="#03847C" stroke-width="1.74237" stroke-linecap="round" stroke-linejoin="round"/>
<path d="M26.0863 7.25554C24.8223 7.51665 24.0201 8.7367 24.2812 10.0007C24.0201 8.7367 22.8 7.93442 21.5361 8.19553C22.8 7.93442 23.6023 6.71437 23.3412 5.45041C23.6023 6.71437 24.8223 7.51665 26.0863 7.25554Z" stroke="#03847C" stroke-width="1.74237" stroke-linecap="round" stroke-linejoin="round"/>
<path d="M28.4363 18.6314C24.6444 19.4147 22.2376 23.0748 23.0209 26.8667C22.2376 23.0748 18.5774 20.668 14.7855 21.4513C18.5774 20.668 20.9842 17.0079 20.2009 13.216C20.9842 17.0079 24.6444 19.4147 28.4363 18.6314Z" stroke="#03847C" stroke-width="1.74237" stroke-linecap="round" stroke-linejoin="round"/>
</g>
<defs>
<clipPath id="clip0_7_25">
<rect width="27.8779" height="27.8779" fill="white" transform="translate(0.878273 6.40796) rotate(-11.672)"/>
</clipPath>
</defs>
</svg>
