<svg width="26" height="26" viewBox="0 0 26 26" fill="none" xmlns="http://www.w3.org/2000/svg">
<path d="M11.2139 22.3469L10.1862 22.3305C7.92522 22.2944 6.10484 20.415 6.14093 18.154L6.25577 10.9599L10.3667 11.0255C11.4972 11.0436 12.4369 10.1334 12.455 9.00288L12.537 3.86424L16.6479 3.92986C18.9089 3.96595 20.7293 5.84539 20.6932 8.1064L20.6604 10.1619" stroke="#03847C" stroke-width="1.54179" stroke-linecap="round" stroke-linejoin="round"/>
<path d="M6.25589 10.9598C6.26649 10.2958 6.50957 9.65646 6.94283 9.1531L10.8388 4.6268C11.2637 4.13318 11.8859 3.85379 12.5371 3.86418" stroke="#03847C" stroke-width="1.54179" stroke-linecap="round" stroke-linejoin="round"/>
<path d="M18.4081 22.4618C20.6785 22.498 22.5484 20.6869 22.5847 18.4165C22.6209 16.1461 20.8098 14.2762 18.5394 14.2399C16.269 14.2037 14.3991 16.0148 14.3628 18.2852C14.3266 20.5556 16.1377 22.4255 18.4081 22.4618Z" stroke="#03847C" stroke-width="1.54179" stroke-miterlimit="10" stroke-linecap="round" stroke-linejoin="round"/>
<path d="M18.5394 14.2399L18.4082 22.4617" stroke="#03847C" stroke-width="1.54179" stroke-linecap="round"/>
<path d="M14.3629 18.2853L22.5848 18.4165" stroke="#03847C" stroke-width="1.54179" stroke-linecap="round"/>
</svg>
